<svg id="Layer_1" data-name="Layer 1" xmlns="http://www.w3.org/2000/svg" viewBox="0 0 120.3 99.03"><defs><style>.cls-1{fill:#f73666;}</style></defs><title>favicon</title><path class="cls-1" d="M78.88,68.19H62Q56.72,68,48,68q-16.93,0-16.93-17T48,34.09h0c3.44,0,6.23-2.45,6.23-5.44V20c0-3.29-3.36-5.84-7.14-5.42-14.18,1.57-22,5.48-22,5.48A32.53,32.53,0,0,0,10.22,31.38,31.45,31.45,0,0,0,3.85,51.06q0,18.15,11.52,27.4T45.9,87.71c5.27,0,22.35-.3,33.16-.5A9.29,9.29,0,0,0,88.3,78v-.68A9.3,9.3,0,0,0,78.88,68.19Z" transform="translate(-3.85 -14.48)"/><path class="cls-1" d="M49.12,59.81H66.05Q71.29,60,80,60q16.94,0,16.93,17T80,93.91h0c-3.44,0-6.23,2.45-6.23,5.44v8.7c0,3.29,3.36,5.84,7.14,5.42,14.18-1.57,22-5.48,22-5.48a32.53,32.53,0,0,0,14.92-11.37,31.45,31.45,0,0,0,6.37-19.68q0-18.15-11.52-27.4T82.1,40.29c-5.27,0-22.35.3-33.16.5A9.29,9.29,0,0,0,39.7,50v.68A9.3,9.3,0,0,0,49.12,59.81Z" transform="translate(-3.85 -14.48)"/></svg>