<svg id="b07e16be-2c10-4721-ba95-38a6ee556ecd" xmlns="http://www.w3.org/2000/svg" xmlns:xlink="http://www.w3.org/1999/xlink" viewBox="0 0 1132.38 767.14"><defs><style>.cls-1,.cls-3{fill:#fd809e;}.cls-1,.cls-12,.cls-31{opacity:0.1;}.cls-1,.cls-12,.cls-30,.cls-7,.cls-8,.cls-9{isolation:isolate;}.cls-2{fill:#c1e9cd;}.cls-4{fill:#444053;}.cls-12,.cls-5{fill:#3f3d56;}.cls-6{fill:#fff;}.cls-7{fill:#fa5959;}.cls-7,.cls-8,.cls-9{opacity:0.8;}.cls-8{fill:#fed253;}.cls-9{fill:#8ccf4d;}.cls-10{opacity:0.3;}.cls-11{fill:none;stroke:#3f3d56;stroke-miterlimit:10;}.cls-13{fill:url(#linear-gradient);}.cls-14{fill:#7cfcff;}.cls-15{fill:url(#linear-gradient-2);}.cls-16{fill:#ffffa5;}.cls-17{fill:url(#linear-gradient-3);}.cls-18{fill:url(#linear-gradient-4);}.cls-19{fill:url(#linear-gradient-5);}.cls-20{fill:#ff69b4;}.cls-21{fill:url(#linear-gradient-6);}.cls-22{fill:url(#linear-gradient-7);}.cls-23{fill:url(#linear-gradient-8);}.cls-24{fill:url(#linear-gradient-9);}.cls-25{fill:url(#linear-gradient-10);}.cls-26{fill:url(#linear-gradient-11);}.cls-27{fill:url(#linear-gradient-12);}.cls-28{fill:#303d5c;}.cls-29{fill:#ee8e9e;}.cls-30{opacity:0.05;}.cls-32{fill:url(#linear-gradient-13);}</style><linearGradient id="linear-gradient" x1="421.86" y1="435.43" x2="421.86" y2="480.09" gradientTransform="matrix(1, 0, 0, -1, 0, 765.9)" gradientUnits="userSpaceOnUse"><stop offset="0" stop-color="gray" stop-opacity="0.25"/><stop offset="0.54" stop-color="gray" stop-opacity="0.12"/><stop offset="1" stop-color="gray" stop-opacity="0.1"/></linearGradient><linearGradient id="linear-gradient-2" x1="516.89" y1="445.11" x2="516.89" y2="489.77" xlink:href="#linear-gradient"/><linearGradient id="linear-gradient-3" x1="699.9" y1="293.11" x2="699.9" y2="337.77" xlink:href="#linear-gradient"/><linearGradient id="linear-gradient-4" x1="293.64" y1="515.02" x2="293.64" y2="559.68" xlink:href="#linear-gradient"/><linearGradient id="linear-gradient-5" x1="385.3" y1="451.02" x2="385.3" y2="495.68" xlink:href="#linear-gradient"/><linearGradient id="linear-gradient-6" x1="753.85" y1="293.43" x2="753.85" y2="338.09" xlink:href="#linear-gradient"/><linearGradient id="linear-gradient-7" x1="834.85" y1="514.43" x2="834.85" y2="559.09" xlink:href="#linear-gradient"/><linearGradient id="linear-gradient-8" x1="829.85" y1="372.43" x2="829.85" y2="417.09" xlink:href="#linear-gradient"/><linearGradient id="linear-gradient-9" x1="864.85" y1="362.43" x2="864.85" y2="407.09" xlink:href="#linear-gradient"/><linearGradient id="linear-gradient-10" x1="717.29" y1="309.02" x2="717.29" y2="353.68" xlink:href="#linear-gradient"/><linearGradient id="linear-gradient-11" x1="722.29" y1="444.02" x2="722.29" y2="488.68" xlink:href="#linear-gradient"/><linearGradient id="linear-gradient-12" x1="122.37" y1="201.09" x2="344.95" y2="201.09" gradientTransform="matrix(1, 0, 0, -1, -33.81, 699.48)" xlink:href="#linear-gradient"/><linearGradient id="linear-gradient-13" x1="277.85" y1="372.43" x2="277.85" y2="417.09" xlink:href="#linear-gradient"/></defs><title>undraw_schedule_pnbk</title><path class="cls-1" d="M612.68,112.3C543.09,112.19,476,90.57,411.89,66.51S284.1,15.62,215.77,4.11c-44-7.4-93.9-6.9-128.17,19.38-33,25.29-42.41,67.26-46.93,106.08-3.39,29.18-4.91,59.83,8.17,86.57,9.09,18.57,24.59,33.89,35.56,51.6,38.17,61.6,15.52,140-21.24,202.82C45.91,500,25.7,528.2,12.69,559.36s-18.28,66.52-4.84,97.35c13.34,30.57,43.34,52.86,75.43,68.07,65.29,31,141.16,37.82,215,40.59,163.48,6.14,327.21-4.8,490.51-15.8,60.43-4.06,121.13-8.16,180.29-20.29,32.85-6.73,66.66-16.76,89.9-38.92,29.5-28.12,35.42-74.17,13.81-107.34-36.26-55.69-131.42-66.45-157.52-126.63-14.37-33.13-2.17-71,15.86-102.86,38.69-68.29,105.44-129.37,106.35-205.89.62-52.56-34.33-103.93-86.37-126.93C896.55-3.43,822.31,2.51,784.28,47,745.12,92.79,674.13,112.4,612.68,112.3Z" transform="translate(0 0)"/><path class="cls-2" d="M958.84,626s-12.29-8.11-24.47-2.34c0,0,3.75,7.23,19.17,6.54Z" transform="translate(0 0)"/><path class="cls-2" d="M960.35,626.44s3.74,14.24-5.63,23.93c0,0-5.64-5.88,0-20.26Z" transform="translate(0 0)"/><path class="cls-2" d="M975.68,612.77s-.91-12.12-28.25-8.1c0,0-.13,7.82,9.47,11.52S970.89,616.77,975.68,612.77Z" transform="translate(0 0)"/><path class="cls-2" d="M977.36,612.68s11.57,3.72,1.26,29.37c0,0-7.63-1.71-9-11.91S972.35,616.4,977.36,612.68Z" transform="translate(0 0)"/><path class="cls-2" d="M992.85,595.5s1.56-19.93-26.39-17.88c0,0-2,18,21.45,22.67Z" transform="translate(0 0)"/><path class="cls-2" d="M1011.32,573s-3.84-22.58-31.77-15.85c0,0-.11,19.53,27.2,21.24Z" transform="translate(0 0)"/><path class="cls-2" d="M1024.81,549.74s-6.41-22-34.09-15.41c0,0,6.58,19.78,32.25,19.48Z" transform="translate(0 0)"/><path class="cls-2" d="M1037.63,527s-6.27-22.83-33-16c0,0,8.92,21.69,31.24,19.87Z" transform="translate(0 0)"/><path class="cls-2" d="M1045.9,505.45s-4.82-27.88-29.71-21.74c0,0,7.24,25.4,27.9,25.8Z" transform="translate(0 0)"/><path class="cls-2" d="M1053.64,479.38s-5.78-28.15-31-20c0,0,9.89,26.59,29.22,23.84Z" transform="translate(0 0)"/><path class="cls-2" d="M1058.44,455.11s-9.19-28.14-28.68-27.38c0,0,9.4,29.73,27,33Z" transform="translate(0 0)"/><path class="cls-3" d="M1061.49,431.44s-10-33.88-25.86-31.27c0,0,6.92,25.9,25.3,36.54Z" transform="translate(0 0)"/><path class="cls-3" d="M1063.19,403.16s-9.37-28.24-25-29.36c0,0,6.38,27.78,24.68,36.69Z" transform="translate(0 0)"/><path class="cls-3" d="M1065.12,376.83s-11.69-28.27-22-28.9c0,0,5.07,27.82,21,33.54Z" transform="translate(0 0)"/><path class="cls-3" d="M1066.41,352.31s-7.22-30.74-17.52-33.24c0,0,1.42,25.1,16.49,35.53Z" transform="translate(0 0)"/><path class="cls-3" d="M1070.3,320.22s-7.56-24.46-15.93-28.19c0,0,1.66,28.84,14,34.18Z" transform="translate(0 0)"/><path class="cls-3" d="M1073.53,299.15l1.53-43.14s-15.62,32.55-2.68,50.75Z" transform="translate(0 0)"/><path class="cls-3" d="M1085.62,256.28s11.26-31.51,14-33.26c0,0-22.1,20.43-19.94,46.73Z" transform="translate(0 0)"/><path class="cls-2" d="M993.61,595.36s19.82-2.6,19.22,25.42c0,0-17.91,2.91-23.75-20.25Z" transform="translate(0 0)"/><path class="cls-2" d="M1012.25,572.25s22.91-.08,21,28.6c0,0-19.22,3.43-25.57-23.19Z" transform="translate(0 0)"/><path class="cls-2" d="M1025,551.57s20.79-9.75,34.1,15.41c0,0-19.21,8.13-35.93-11.35Z" transform="translate(0 0)"/><path class="cls-3" d="M1038.1,527.24s21.28-10.38,33.78,14.21c0,0-22.17,7.64-35.54-10.32Z" transform="translate(0 0)"/><path class="cls-3" d="M1045.63,506.05s20.49-19.57,36.84.23c0,0-20.93,16.1-37.79,4.13Z" transform="translate(0 0)"/><path class="cls-3" d="M1052.48,478.71s20.62-20,36.84.92c0,0-23.14,16.43-37.57,3.28Z" transform="translate(0 0)"/><path class="cls-3" d="M1056.34,454.31s15.88-25,34.57-19.41c0,0-16.47,26.47-34.39,25.29Z" transform="translate(0 0)"/><path class="cls-3" d="M1061,431.28s16-31.49,31.13-26c0,0-11.53,24.2-31.54,31.31Z" transform="translate(0 0)"/><path class="cls-3" d="M1062.12,401.57s16.45-24.78,31.86-21.76c0,0-13.44,25.13-33.45,28.93Z" transform="translate(0 0)"/><path class="cls-3" d="M1063.38,376.27s12.74-27.8,23.11-28c0,0-6.12,27.62-22.26,32.73Z" transform="translate(0 0)"/><path class="cls-3" d="M1065.9,351.7s14.17-28.16,24.82-28.21c0,0-7.25,24.07-24.34,30.69Z" transform="translate(0 0)"/><path class="cls-3" d="M1068,322s10.6-23.3,19.37-25.94c0,0-5.3,28.4-18.21,32.12Z" transform="translate(0 0)"/><path class="cls-3" d="M1074.8,298.33l23.68-36.08s-6.06,35.59-27.14,43Z" transform="translate(0 0)"/><path class="cls-3" d="M1091.06,259.18s27.53-19,28.52-22.08c0,0-14,26.62-40,31.32Z" transform="translate(0 0)"/><path class="cls-3" d="M1092.7,250.63s31.61-30.39,39.68-30.35c0,0-26.07,1.19-40.44,28.73Z" transform="translate(0 0)"/><path class="cls-4" d="M1068.34,326.46l1.15.15c5.94-46.5,14.6-74,24.39-77.38l-.38-1.09C1083.13,251.74,1074.43,278.82,1068.34,326.46Z" transform="translate(0 0)"/><path class="cls-4" d="M1059.61,437.63l1.74.15c.36-4.34.64-8.79.83-13.21,1.66-38.49,4.24-73.82,7.62-100.31l-1-1.25c-3.39,26.54-6.69,62.95-8.35,101.48C1060.25,428.89,1060,433.31,1059.61,437.63Z" transform="translate(0 0)"/><path class="cls-4" d="M926.38,648.14c.31-.14,30.94-13.81,62.73-46.44a252.54,252.54,0,0,0,45.85-65c14.69-29.93,23.65-66.71,26.66-102.44l-1.81.85c-6.75,80.19-43.26,135-72.3,164.84-31.48,32.34-61.76,45.88-62.06,46Z" transform="translate(0 0)"/><path class="cls-5" d="M1048.71,48.88H87.83a8.56,8.56,0,0,0-8.56,8.56V82.38h978V57.44A8.56,8.56,0,0,0,1048.71,48.88Z" transform="translate(0 0)"/><path class="cls-6" d="M79.27,82.38V643.62a17.26,17.26,0,0,0,17.26,17.26H1040a17.26,17.26,0,0,0,17.26-17.26h0V82.38Z" transform="translate(0 0)"/><circle class="cls-7" cx="94.77" cy="65.37" r="4"/><circle class="cls-8" cx="105.77" cy="65.37" r="4"/><circle class="cls-9" cx="116.77" cy="65.37" r="4"/><g class="cls-10"><rect class="cls-11" x="116.77" y="116.37" width="904" height="510"/><rect class="cls-11" x="234.77" y="116.37" width="668" height="510"/><rect class="cls-11" x="352.77" y="116.37" width="432" height="510"/><rect class="cls-11" x="470.77" y="116.37" width="196" height="510"/><line class="cls-11" x1="568.77" y1="116.37" x2="568.77" y2="626.37"/><rect class="cls-11" x="116.77" y="190.37" width="904" height="362"/><rect class="cls-11" x="116.77" y="263.37" width="904" height="216"/><rect class="cls-11" x="116.77" y="336.37" width="904" height="70"/></g><rect class="cls-12" x="258.27" y="144.87" width="71" height="26"/><rect class="cls-12" x="147.27" y="215.87" width="53" height="26"/><rect class="cls-12" x="373.27" y="144.87" width="71" height="26"/><rect class="cls-12" x="481.27" y="144.87" width="71" height="26"/><rect class="cls-12" x="581.27" y="144.87" width="71" height="26"/><rect class="cls-12" x="693.27" y="144.87" width="71" height="26"/><rect class="cls-12" x="807.27" y="144.87" width="71" height="26"/><rect class="cls-12" x="928.27" y="144.87" width="71" height="26"/><rect class="cls-13" x="398.79" y="285.82" width="46.13" height="44.66"/><rect class="cls-14" x="399.59" y="286.59" width="44.54" height="43.12"/><rect class="cls-15" x="493.83" y="276.14" width="46.13" height="44.66"/><rect class="cls-16" x="494.63" y="276.91" width="44.54" height="43.12"/><rect class="cls-17" x="676.83" y="428.14" width="46.13" height="44.66"/><rect class="cls-16" x="677.63" y="428.91" width="44.54" height="43.12"/><rect class="cls-18" x="270.57" y="206.23" width="46.13" height="44.66"/><rect class="cls-16" x="271.36" y="207" width="44.54" height="43.12"/><rect class="cls-19" x="362.23" y="270.23" width="46.13" height="44.66"/><rect class="cls-20" x="363.02" y="271" width="44.54" height="43.12"/><rect class="cls-21" x="730.79" y="427.82" width="46.13" height="44.66"/><rect class="cls-14" x="731.59" y="428.59" width="44.54" height="43.12"/><rect class="cls-22" x="811.79" y="206.82" width="46.13" height="44.66"/><rect class="cls-14" x="812.59" y="207.59" width="44.54" height="43.12"/><rect class="cls-23" x="806.79" y="348.82" width="46.13" height="44.66"/><rect class="cls-14" x="807.59" y="349.59" width="44.54" height="43.12"/><rect class="cls-24" x="841.79" y="358.82" width="46.13" height="44.66"/><rect class="cls-14" x="842.59" y="359.59" width="44.54" height="43.12"/><rect class="cls-25" x="694.23" y="412.23" width="46.13" height="44.66"/><rect class="cls-20" x="695.02" y="413" width="44.54" height="43.12"/><rect class="cls-26" x="699.23" y="277.23" width="46.13" height="44.66"/><rect class="cls-20" x="700.02" y="278" width="44.54" height="43.12"/><rect class="cls-12" x="147.27" y="285.87" width="53" height="26"/><rect class="cls-12" x="147.27" y="358.87" width="53" height="26"/><rect class="cls-12" x="147.27" y="431.87" width="53" height="26"/><rect class="cls-12" x="147.27" y="504.87" width="53" height="26"/><rect class="cls-12" x="147.27" y="577.87" width="53" height="26"/><path class="cls-27" d="M308.27,351.08c1.48-.94.89-3.46-.63-4.33s-3.41-.58-5.12-.24a2.09,2.09,0,0,0-1.1-2.2v-.38c1-1,.62-3-.6-3.88s-3.12-.92-4.76-.84a6.34,6.34,0,0,0-2-5.4,1.67,1.67,0,0,0-1.1-.53c-1,0-1.28,1.28-1.35,2.23a42.08,42.08,0,0,1-1.23,7.39l-31.08,52c-3.46,5,7.29-10,3.83-4.95a44.24,44.24,0,0,1-6.12,7.59,30.05,30.05,0,0,1-6.91,4.63,8.16,8.16,0,0,1-4.72-1.34,19,19,0,0,1-4.54-4.49,87.87,87.87,0,0,1-7.33-10.89,14.15,14.15,0,0,1-1.68-3.89c-.46-2.16,0-4.5-.85-6.53a10.39,10.39,0,0,0-1.34-2.12l-2.15-2.85v-.13c-.24-4.22-3.67-7.48-6.87-10.26-2.72-2.38-5.67-4.86-9.26-5.32-1.92-.25-3.89.12-5.81-.12-1.57-.2-3.06-.79-4.62-1.05a19.07,19.07,0,0,0-4.53-.09l-.64-.59a17.88,17.88,0,0,0,8.09-6.8c1.48-2.39,2.29-5.15,3.66-7.61,1.67-3,4.15-5.48,6-8.36,4.47-6.83,5.29-15.62,3.48-23.58s-6.05-15.19-11-21.64c-9.6-12.42-25.7-17-40.86-14.6q-1.5.24-3,.57a38.72,38.72,0,0,0-7.43,2.37,19,19,0,0,0-8.11,6.33,14.37,14.37,0,0,0-1.41,2.62,14.64,14.64,0,0,0-.68,2.16,22.56,22.56,0,0,0-.37,6.76c.06.77.14,1.54.23,2.31l.15,1.16c.1.77.21,1.54.32,2.31.16,1.16.31,2.32.42,3.46a22,22,0,0,1,.13,2.43V303a10.9,10.9,0,0,1-.27,1.79,8,8,0,0,1-.3.95,11.61,11.61,0,0,1-1.41,2.59,31.5,31.5,0,0,1-2.53,3.11l-.87,1-.86,1a37,37,0,0,0-3.13,4.23,20.58,20.58,0,0,0-1.23,2.32,18.23,18.23,0,0,0-.71,1.86,15.4,15.4,0,0,0-.54,2.6,2.46,2.46,0,0,1-.06.66v1.31a11.23,11.23,0,0,0,.14,1.3,8.89,8.89,0,0,0,.3,1.26,8.55,8.55,0,0,0,.47,1.22c0,.11.1.22.16.33l.16.33c.11.22.22.43.32.65a4.35,4.35,0,0,1,.33,1v.73a4.13,4.13,0,0,1-1.48,2.55c-.2.19-.4.36-.61.54l-.32.26-.65.51-.62.5a13.37,13.37,0,0,0-1.51,1.5,55.87,55.87,0,0,0-16.74,1.64,22.67,22.67,0,0,1-6,1.09,3,3,0,0,1-2.6-1.09,3.81,3.81,0,0,1-.27-2.4,20.7,20.7,0,0,0-1.6-9.8,5.46,5.46,0,0,0-1.6-2.33,2.25,2.25,0,0,0-2.66-.14A24.92,24.92,0,0,1,98,342.74,53.85,53.85,0,0,1,94.15,350c-2.28,3.89-3.56,8.34-5.59,12.37,2.27,7.69,1.76,15.9,3,23.84,1.11,7.39,3.69,14.47,6.28,21.48,2,5.29,4.08,10.81,8.32,14.53a7.58,7.58,0,0,0,5.15,2.24,9,9,0,0,0,4-1.52,15.35,15.35,0,0,0,3.39-2.49,9.25,9.25,0,0,0,1-1.33,5.12,5.12,0,0,0,.75,1.88c2.44-5.26,5.12-10.4,8-15.43a13.58,13.58,0,0,0,2.4-1.64,2.15,2.15,0,0,0,.14.54c-.13.48-.25,1-.38,1.45s-.28.93-.42,1.38-.21.67-.32,1-.27.8-.42,1.2-.32.87-.49,1.3-.23.62-.36.92c-.31.76-.63,1.5-1,2.24a7,7,0,0,0,.86.35l.19.06a7,7,0,0,0,.79.2h.29a5.9,5.9,0,0,0,.59.06h.87a8.4,8.4,0,0,0,2.11-.36l.39,1.6a57.08,57.08,0,0,1,1.92,11c.19,4.2-.54,8.47.27,12.6.41,2.15,1.24,4.21,1.54,6.37a27.15,27.15,0,0,1-.11,6.11q-.7,7.36-1.4,14.73a12.52,12.52,0,0,1-1.26,5.2c-.69,1.2-1.81,2.57-1.11,3.76a24.69,24.69,0,0,1,3.51-.67c-.43,1.56-.82,3.13-1.19,4.71a8.25,8.25,0,0,0-.28,3.63c.25,1.14,1,2.17,1.08,3.33.18,1.8-1.07,3.39-1.76,5.06-1.76,4.26.11,9.06,2,13.28l5.52,12.52L147,527.74c1.34,3,2.69,6.1,4,9.18a298.8,298.8,0,0,1,14.42,43.24,5.12,5.12,0,0,0,.75,1.88c.76,1,2.15,1.32,3.28,1.94,3.39,1.87,3.78,7.45.68,9.77.63,7.52-5,14.79-7.9,21.75-6.68,16-5.47,34.06-7.76,51.26l2.59-1.51a3.13,3.13,0,0,1,.84.55c-.06.32-.13.65-.21,1A15.67,15.67,0,0,1,156,671c-1.51,2.59-3.82,4.9-4.17,7.88-.21,1.8.34,3.6.33,5.41v.5c-.23-.22-.58-.2-1.1.21a6.5,6.5,0,0,0-1.63,3.07c-.45,1.29-.81,2.6-1.17,3.91l-1.34,4.62a53.34,53.34,0,0,1-2.71,8.15,34.64,34.64,0,0,0-2.4,5.52,17.16,17.16,0,0,0-.41,4.74,14,14,0,0,0,.65,4.5,11.17,11.17,0,0,0,6.55,6.21,30.73,30.73,0,0,0,9.1,1.72,7.66,7.66,0,0,0,2.39-.07,6.4,6.4,0,0,0,2.31-1.21c4.22-3.1,6.4-8.8,6.78-14a21.4,21.4,0,0,0-.57-3.18c.26-5.69-.57-11.41-.14-17.08.09.65.18,1.29.28,1.93l1,6.37a1.38,1.38,0,0,0-.34-.6,14.66,14.66,0,0,0-.38,7.29,43.5,43.5,0,0,0,2.1,7.07l1.36,3.8a9.08,9.08,0,0,0,1.62,3.15c1.19,1.31,3,1.8,4.74,2.22a52.6,52.6,0,0,0,11.48,2,2.63,2.63,0,0,0,1.51-.28,7.59,7.59,0,0,0,.68-.57,6.71,6.71,0,0,1,1.1-.64,7.29,7.29,0,0,0,3.52-4.17,6.58,6.58,0,0,0-.65-5.39,11.65,11.65,0,0,0-1.55-1.88l-6.84-7.25a44.67,44.67,0,0,0-3.34-3.54,1.26,1.26,0,0,0-1.1-.36c-1.86-4.64-1.62-10.06-1.3-15.15.1-1.52.93-4.67,1.26-7.26a11.72,11.72,0,0,0,3.63-2,5.51,5.51,0,0,0,2.09-3.12c3.45-17.62,9-34.7,14.24-51.87.52-1.69,1-3.39,1.53-5.08.22-.72.42-1.45.63-2.18s.35-1.18.52-1.77c.28-1,.56-2,.83-3,.08-.27.15-.54.23-.81v-.16c.33-1.23.65-2.46,1-3.69.12-.48.25-.94.37-1.42.39-1.56.78-3.14,1.15-4.71a5.18,5.18,0,0,0,.14-.66,2.73,2.73,0,0,0-.11-1.67h0a2,2,0,0,0-.39-.56c-.11-.13-.23-.26-.35-.38a5.52,5.52,0,0,1-.38-.43,3.86,3.86,0,0,1-.7-1.31v-1.44c0-.44-.06-1-.09-1.52a17,17,0,0,1,.45-2c.12-.39.25-.78.37-1.17s.3-1,.46-1.45a3.67,3.67,0,0,0,.91-2.47c.62-1.55,1.3-3.06,2.05-4.55a13.82,13.82,0,0,0,1.83-4.92,19.39,19.39,0,0,0-.58-4.67c-1-6.5,2-12.83,4.21-19a84.72,84.72,0,0,0,3.72-14c.65-3.65,1.1-7.48,3-10.64a16.37,16.37,0,0,0,1.64-2.84,11.32,11.32,0,0,0,.44-3.22,35.48,35.48,0,0,1,3.15-12.77,8.1,8.1,0,0,0,.82-2.49.49.49,0,0,0,0-.17v-.24l.51-.08c.87-5.51,1.75-11.65,1.15-17.2a26.22,26.22,0,0,0-8.79-16.6h.1c1.72-.87,2.49-3,2.52-4.88a9.48,9.48,0,0,0-3.54-7.43,3.48,3.48,0,0,1-1.2-1.24,3.66,3.66,0,0,1-.15-1.61,8.23,8.23,0,0,0-5.07-7.64,1.93,1.93,0,0,1-.83-.48,2,2,0,0,1-.22-1.46,8.93,8.93,0,0,0-4.31-8.16c.4-2.14.8-4.38.19-6.48s-2.58-4-4.74-3.7c1.76-4.8-.74-10.14-.08-15.21.29-2.18,1.16-4.27,1.27-6.46.1-2-.39-4.14.58-5.88s3.26-3.1,2.67-5c-.25-.81-1-1.37-1.35-2.16s1.05-2,1.77-1.56c.34-.26.68-.53,1-.81a16.11,16.11,0,0,0,.6,3c.49,1.64,1.24,3.18,1.75,4.81.78,2.49,1,5.19,2.26,7.47,2,3.65,6.23,5.46,9.09,8.49,1.68,1.77,2.89,4,4.62,5.68a25,25,0,0,0,4.3,3.23l9.24,6a10.5,10.5,0,0,0,3.16,1.57,5.38,5.38,0,0,0,6.3-4.29,2.33,2.33,0,0,0,.05-.28,6.24,6.24,0,0,1-2.27-1.41.89.89,0,0,0,.39-.06,14.49,14.49,0,0,0,5.93-3.15c6.58-5.24,11.31-12.39,15.93-19.42,4.84-7.37,28.13-26.87,28.13-26.87v-7.9a28.61,28.61,0,0,0,7.76-6.61,8.57,8.57,0,0,0,1.95-5A4.45,4.45,0,0,0,308.27,351.08ZM114.57,370c-.45,2.87-1,5.73-1.65,8.56a80.8,80.8,0,0,1-2.76,9.67l-.36,1-1-1.86c-.75-1.57-1.36-3.2-2-4.83l-3.86-10.4c-.5-1.35-1-2.91-.25-4.15a4.69,4.69,0,0,1,2.2-1.65,43.48,43.48,0,0,1,8.46-2.87,23.17,23.17,0,0,0,2.72-.72,40.77,40.77,0,0,0-1.5,7.25Zm4.27-13a1.56,1.56,0,0,1,0-1.51,3.47,3.47,0,0,1,1-.7l.29-.2c-.4.83-.85,1.63-1.29,2.44Zm8-11.31a20.45,20.45,0,0,0-3.08,3.16,33,33,0,0,0-2.64,4.08,3,3,0,0,0-1.1-3,6.08,6.08,0,0,1-1-.68,2.09,2.09,0,0,1,.42-2.94h0a6.1,6.1,0,0,1,3.11-1.06l4.61-.68c-.14.39-.23.77-.33,1.15ZM170,680.37a16.83,16.83,0,0,0-.27-4.13h1.7C171,677.57,170.48,679,170,680.37Z" transform="translate(0 0)"/><path class="cls-28" d="M165.3,272.91c-8,1.29-16.9,4.37-20,11.87-2.31,5.67-.52,12.05.07,18.14a14,14,0,0,1-.17,4.83c-.66,2.57-2.48,4.65-4.24,6.64a35.17,35.17,0,0,0-6.09,8.54c-1.44,3.2-1.9,7-.41,10.2a7.24,7.24,0,0,1,1,2.69c.1,2.08-2.08,3.4-3.68,4.73-6,5-5.75,14-5.8,21.83a110.72,110.72,0,0,1-10.39,46.19,14.11,14.11,0,0,0,15.77-2.06,52.33,52.33,0,0,1-3.58,10.32c5.08,2.46,11.21-1.58,13.76-6.62s2.85-10.9,4.66-16.25,5-10,6.41-15.39c.45-1.78.73-3.68,1.82-5.16a13.71,13.71,0,0,1,3.2-2.73,31.28,31.28,0,0,0,11.31-15.33c6.22,1.37,12.57,2.75,18.91,2.17s12.82-3.45,16.17-8.87c1.48-2.39,2.28-5.14,3.65-7.6,1.68-3,4.15-5.48,6-8.35,4.46-6.83,5.28-15.6,3.47-23.56s-6-15.16-11-21.61C196.56,275.09,180.46,270.48,165.3,272.91Z" transform="translate(0 0)"/><path class="cls-3" d="M114.81,372.93c-.45,2.86-1,5.72-1.64,8.55a85.12,85.12,0,0,1-2.76,9.66,9.3,9.3,0,0,0-.87,4.44,8.11,8.11,0,0,0,1.07,2.64c3.65,6.49,8.59,12.76,9,20.2.1,1.85,0,3.86,1,5.39q4.23-9.1,9.34-17.76c3.56-6,7.52-12.14,8.54-19.08a35.74,35.74,0,0,0-.13-9.8c-.47-3.65-1.29-7.39-3.51-10.31-2.42-3.16-9-7.93-13.33-6.94C116.49,361.07,115.45,368.86,114.81,372.93Z" transform="translate(0 0)"/><path class="cls-29" d="M243.7,407.91c4.78-2,9.66-4,13.45-7.52a44.24,44.24,0,0,0,6.12-7.59l11.25-16.23c2.66-3.86,5.41-7.91,6-12.56a41.34,41.34,0,0,0,11.23-25.54c.08-1,.4-2.2,1.35-2.23a1.67,1.67,0,0,1,1.1.53,6.35,6.35,0,0,1,2,5.39c1.64-.08,3.42-.12,4.76.84s1.7,3.34.26,4.13a2.06,2.06,0,0,1,1.43,2.33c1.72-.34,3.61-.62,5.13.24s2.1,3.38.63,4.32a4.45,4.45,0,0,1,2.85,4.27,8.5,8.5,0,0,1-1.95,5c-4.32,5.8-11.94,8.14-16.95,13.36a40.19,40.19,0,0,0-4.41,5.89l-14.51,22.08c-4.61,7-9.34,14.17-15.92,19.39a14.49,14.49,0,0,1-5.93,3.15,6.53,6.53,0,0,1-6.23-1.73c-1.45-1.65-1.67-4-1.81-6.21C243.31,415.5,244,411.66,243.7,407.91Z" transform="translate(0 0)"/><path class="cls-28" d="M195.11,714.57a11.65,11.65,0,0,1,1.55,1.88,6.57,6.57,0,0,1,.65,5.38A7.19,7.19,0,0,1,193.8,726a6.8,6.8,0,0,0-1.11.64,6.3,6.3,0,0,1-.68.58,2.82,2.82,0,0,1-1.51.28,53.84,53.84,0,0,1-11.47-2c-1.72-.43-3.54-.92-4.74-2.22a9.08,9.08,0,0,1-1.62-3.15l-1.36-3.79a44.36,44.36,0,0,1-2.09-7.06,14.38,14.38,0,0,1,.38-7.28,2.29,2.29,0,0,1,.5,1.49,16.3,16.3,0,0,0,2.92,7.06,7.46,7.46,0,0,0,1.14,1.43,7.23,7.23,0,0,0,3.41,1.43,42.3,42.3,0,0,0,7.26.93,2,2,0,0,0,1-.12,1.79,1.79,0,0,0,.83-1,4.42,4.42,0,0,0,0-3c-.66-1.85-2.47-3.06-3.33-4.82-.65-1.3.24-2.73,1.56-1.63a43.12,43.12,0,0,1,3.35,3.54Z" transform="translate(0 0)"/><path class="cls-29" d="M182.54,688.3c-.39,6.11-.66,12.71,2.68,17.84,1.21,1.84,2.82,3.39,4.19,5.12a6.06,6.06,0,0,1,1.5,3.09c.19,2.24-1.91,4.16-4.12,4.58s-4.47-.28-6.61-1a15.89,15.89,0,0,1-5.61-2.64c-2.91-2.46-3.68-6.56-4.26-10.32L169,696.23a20.93,20.93,0,0,1,1.24-13.2l2.24-6.56a3,3,0,0,1,1-1.63,2.75,2.75,0,0,1,1.71-.32c2.14.11,7.55.89,8.59,3.16C184.61,679.65,182.69,686,182.54,688.3Z" transform="translate(0 0)"/><path class="cls-30" d="M182.54,688.3c-.39,6.11-.66,12.71,2.68,17.84,1.21,1.84,2.82,3.39,4.19,5.12a6.06,6.06,0,0,1,1.5,3.09c.19,2.24-1.91,4.16-4.12,4.58s-4.47-.28-6.61-1a15.89,15.89,0,0,1-5.61-2.64c-2.91-2.46-3.68-6.56-4.26-10.32L169,696.23a20.93,20.93,0,0,1,1.24-13.2l2.24-6.56a3,3,0,0,1,1-1.63,2.75,2.75,0,0,1,1.71-.32c2.14.11,7.55.89,8.59,3.16C184.61,679.65,182.69,686,182.54,688.3Z" transform="translate(0 0)"/><path class="cls-28" d="M230.61,507.19v.17a7.49,7.49,0,0,1-.82,2.47,35.34,35.34,0,0,0-3.16,12.74,11.32,11.32,0,0,1-.44,3.22,15.92,15.92,0,0,1-1.64,2.83c-2,3.17-2.4,7-3.05,10.63a84,84,0,0,1-3.72,13.94c-2.23,6.18-5.23,12.5-4.21,19a19.39,19.39,0,0,1,.58,4.67,13.52,13.52,0,0,1-1.83,4.91,47.18,47.18,0,0,0-2,4.55c-.65,1.66-1.23,3.36-1.74,5.08-.6,2.09-1,4.57.38,6.25a7.42,7.42,0,0,1,1.13,1.37,3.67,3.67,0,0,1,0,2.36q-1.18,5-2.54,10c-.7,2.6-1.44,5.18-2.2,7.76-5.62,18.87-12,37.55-15.76,56.88-.54,2.78-4.11,4.77-6.87,5.38a9,9,0,0,1-7.9-2.11c-.19-.17-.37-.36-.54-.54-2.9-3.12-3.33-7.91-3.11-12.23,1-19.89,11-38.1,15.76-57.43a111.22,111.22,0,0,0,3.1-21.32c1.11-24,1.56-49.38-5.23-72.45-1.41-4.8-3.08-10.22-.54-14.52,1.6-2.72,4.57-4.33,7.51-5.49a48.31,48.31,0,0,1,37.46,1,11.56,11.56,0,0,1-.06,1.44,14.88,14.88,0,0,0,.76,6.62A8.32,8.32,0,0,1,230.61,507.19Z" transform="translate(0 0)"/><path class="cls-28" d="M148.39,694.45l-1.27,4.62a52.71,52.71,0,0,1-2.7,8.13,34.64,34.64,0,0,0-2.4,5.52,17.16,17.16,0,0,0-.41,4.74,14,14,0,0,0,.65,4.49,11.14,11.14,0,0,0,6.54,6.2,30.41,30.41,0,0,0,9.1,1.71,7.38,7.38,0,0,0,2.39-.06,6.4,6.4,0,0,0,2.31-1.21c4.22-3.09,6.39-8.79,6.77-14a17.33,17.33,0,0,0-.71-3.58c-.33-.44-3.52,1.36-2.15,2.87,2,2.22-3.89,1.07-6.89.88a25.91,25.91,0,0,1-3.91-.64l-4.86-1c-1.59-.34-3.42-.89-4-2.41s.66-3.34,1.62-4.82c2.54-3.93,3.2-8.74,3.79-13.38.11-.91,1.25-6.82-1.1-5a6.59,6.59,0,0,0-1.63,3.07C149.1,691.83,148.74,693.14,148.39,694.45Z" transform="translate(0 0)"/><path class="cls-30" d="M208.91,597.66c-1.38-1.68-1-4.16-.37-6.25.22-.78.47-1.55.73-2.32l-19.08-6.46c-.07,1.72-.15,3.42-.23,5.12a110.52,110.52,0,0,1-3.09,21.33c-4.77,19.32-14.78,37.53-15.76,57.41-.23,4.58.26,9.7,3.65,12.78a9,9,0,0,0,7.89,2.12c2.77-.61,6.33-2.61,6.88-5.39,3.78-19.33,10.13-38,15.76-56.89q2.63-8.79,4.74-17.72a3.64,3.64,0,0,0,0-2.35A6.77,6.77,0,0,0,208.91,597.66Z" transform="translate(0 0)"/><path class="cls-29" d="M156.19,673.49c-1.51,2.6-3.81,4.9-4.16,7.88-.21,1.79.34,3.59.33,5.4a17.39,17.39,0,0,1-.79,4.41q-2.79,10.07-6.42,19.86a5.46,5.46,0,0,0-.51,2.7c.24,1.53,1.73,2.54,3.15,3.15,4.55,1.94,9.67,1.81,14.61,1.61a7.67,7.67,0,0,0,4.11-1c1.77-1.21,2.21-3.6,2.32-5.74.34-6.2-.71-12.43,0-18.59.25-2.25.72-4.46,1.07-6.69.49-3.1.74-6.36-.28-9.33a21.45,21.45,0,0,0-3.5-5.87,18.6,18.6,0,0,0-4.85-4.84c-.58-.34-2.23-1.4-2.82-.74-.3.34-.17,1.25-.21,1.67a17.51,17.51,0,0,1-.34,1.92A16,16,0,0,1,156.19,673.49Z" transform="translate(0 0)"/><path class="cls-30" d="M192.85,514.93c-.89,1.21-.71,2.89-.35,4.35.63,2.64,1.69,5.17,2.55,7.74a107.7,107.7,0,0,1,3.28,14.08c.8,4.3,2.5,9.09,1.81,13.42a95.62,95.62,0,0,1,10.13,31.81c.39,2.85-5.94,6.53-5.82,9.4.24,5.72,4.8,6.18,1.44,10.74-.17.23,1.26,5.34,1.07,5.56-1.37,1.65-3.11,3-4.58,4.51a34.42,34.42,0,0,0-4.83,7.07c-8.7,15.72-21.28,33.54-17.4,51.09a3.12,3.12,0,0,1-1.66,3.15,8.7,8.7,0,0,1-3.68.85h-.6c-2.9-3.12-3.33-7.91-3.11-12.23,1-19.89,11-38.1,15.76-57.43a111.22,111.22,0,0,0,3.1-21.32c1.11-24,1.56-49.38-5.23-72.45-1.41-4.8-3.08-10.22-.54-14.52,1.6-2.72,4.57-4.33,7.51-5.49a48.31,48.31,0,0,1,37.46,1,11.56,11.56,0,0,1-.06,1.44,14.88,14.88,0,0,0,.76,6.62,8.46,8.46,0,0,1,.75,2.88s.34-3.87.33-3.81c-7.75,1.11-15.93,6.18-23.75,7.33a55.23,55.23,0,0,0-11.91,2.62A5.43,5.43,0,0,0,192.85,514.93Z" transform="translate(0 0)"/><path class="cls-28" d="M138.86,472.35q-1.58,5-2.77,10.1a8.41,8.41,0,0,0-.28,3.63c.25,1.14,1,2.16,1.08,3.32.18,1.8-1.07,3.39-1.76,5.06-1.76,4.25.12,9.05,2,13.26l5.52,12.5,4.54,10.26q2,4.57,4,9.17a297.33,297.33,0,0,1,14.41,43.19,5.28,5.28,0,0,0,.74,1.88c.77,1,2.16,1.32,3.28,1.94,3.4,1.86,3.79,7.44.68,9.76.64,7.51-5,14.76-7.89,21.72-6.68,16-5.47,34-7.76,51.2l2.59-1.52c2.49,1.14,2.4,4.67,3.74,7.06,2,3.59,6.92,4.09,11,3.82a8.62,8.62,0,0,0,3.67-.85,3.1,3.1,0,0,0,1.66-3.15c-3.87-17.55,8.7-35.37,17.41-51.09a34.77,34.77,0,0,1,4.82-7.07c1.48-1.56,3.21-2.87,4.59-4.51,3.84-4.61,4.33-11.11,4.07-17.11a95.74,95.74,0,0,0-10.9-40.41c.7-4.32-1-9.11-1.8-13.41A106.07,106.07,0,0,0,192.19,527c-.86-2.59-1.91-5.11-2.55-7.75-.35-1.46-.54-3.14.35-4.35a5.36,5.36,0,0,1,2.46-1.59,55.23,55.23,0,0,1,11.91-2.62l26.83-3.85c.86-5.51,1.74-11.65,1.14-17.19a26.43,26.43,0,0,0-18.93-22.11c-1.17-.31-2.54-.51-3.5.23A139.57,139.57,0,0,0,138.86,472.35Z" transform="translate(0 0)"/><path class="cls-29" d="M163.19,327.44a13.2,13.2,0,0,1-1.17,7.68,12.09,12.09,0,0,1-3,3.37,23,23,0,0,1-8.84,4.39c-1.9.48-4,.8-5.29,2.31-1.88,2.27-.62,5.71,1,8.19,2.78,4.32,6.64,8.23,11.59,9.58,4,1.08,8.17.42,12.21,1.12,2.93.51,5.69,1.72,8.58,2.41A25.34,25.34,0,0,0,201.54,360c-4.3-3.3-8.76-6.81-11-11.75A16.67,16.67,0,0,1,189.7,337c1-3.66,3.35-7.22,2.63-11s-4.4-6.31-8-7.57a52.32,52.32,0,0,0-10.14-2c-1.89-.26-13.89-2.91-14.64-1.6-.42.74,2.07,5.12,2.38,6.09A23,23,0,0,1,163.19,327.44Z" transform="translate(0 0)"/><circle class="cls-29" cx="178.32" cy="311.86" r="24.34"/><path class="cls-3" d="M165.46,352.09,182,354.87a61.55,61.55,0,0,0,12.33,1.24,35.11,35.11,0,0,1,6.8,0c1.56.26,3.05.85,4.61,1.05,1.93.24,3.89-.13,5.82.12,3.58.46,6.53,2.94,9.25,5.31,3.19,2.78,6.62,6,6.87,10.25a3.13,3.13,0,0,1-.2,1.42,4.06,4.06,0,0,1-1.23,1.28c-3,2.49-4.73,6.2-6.89,9.48a36.72,36.72,0,0,1-8.2,8.85c-.72-.46-2.09.75-1.78,1.55s1.1,1.35,1.36,2.16c.59,1.87-1.72,3.25-2.68,5s-.47,3.88-.57,5.87c-.12,2.19-1,4.28-1.27,6.45-.67,5.07,1.84,10.41.07,15.2,2.17-.27,4.13,1.6,4.74,3.69a14,14,0,0,1-.19,6.48,8.91,8.91,0,0,1,4.32,8.14,1.39,1.39,0,0,0,1,1.94A8.24,8.24,0,0,1,221.2,458a3.71,3.71,0,0,0,.15,1.62,3.59,3.59,0,0,0,1.19,1.23,9.48,9.48,0,0,1,3.54,7.42,5.36,5.36,0,0,1-2.51,4.87c-3.5,1.78-7.25,2.47-11.09,3.3a97.58,97.58,0,0,1-10.73,1.91,98.15,98.15,0,0,1-10,.31l-22.08-.09c-6.21,0-12.42,0-18.61-.47-5.78-.39-11.69-1.11-17.29.41-.7-1.19.42-2.56,1.11-3.75a12.52,12.52,0,0,0,1.26-5.2l1.4-14.71a27.05,27.05,0,0,0,.11-6.1c-.3-2.17-1.12-4.22-1.54-6.37-.8-4.12-.07-8.38-.26-12.58a57.87,57.87,0,0,0-1.93-11l-4.38-18c-.7-2.89-1.07-6.25-2.15-9q-5.06-13-10.59-25.72a2.72,2.72,0,0,1,.2-2.28l3.65-6.54a41.39,41.39,0,0,1,3.34-5.33,21,21,0,0,1,12.32-7.56,21.71,21.71,0,0,1,14.33,2.12c1.7.91,3.28,2,5,2.9C158.59,350.77,162.19,352.31,165.46,352.09Z" transform="translate(0 0)"/><path class="cls-3" d="M224,368.12l5.75,7.67a10.39,10.39,0,0,1,1.34,2.12c.86,2,.39,4.36.85,6.51a13.75,13.75,0,0,0,1.69,3.89A88.25,88.25,0,0,0,241,399.18a18.84,18.84,0,0,0,4.55,4.49,7.51,7.51,0,0,0,6.12,1.09,3.79,3.79,0,0,0-2,1.82c-2.19,4.34-2.35,9.48-1.42,14.24a14.32,14.32,0,0,0,1.6,4.66,6.94,6.94,0,0,0,3.66,3.17,5.38,5.38,0,0,1-6.05,4.61l-.3-.05a10.33,10.33,0,0,1-3.15-1.57l-9.24-6a26,26,0,0,1-4.3-3.23c-1.73-1.72-2.93-3.9-4.61-5.67-2.86-3-7.06-4.84-9.08-8.48-1.27-2.28-1.49-5-2.27-7.46-.51-1.63-1.26-3.17-1.75-4.81-1.52-5.06-.42-10.61,1.89-15.36S220.62,372.16,224,368.12Z" transform="translate(0 0)"/><path class="cls-28" d="M202.37,298a32.28,32.28,0,0,0-8.56-8.91c-4.55-3.39-9.78-6.21-15.45-6.53a16.67,16.67,0,0,0-7,1.13c-.11-6.87-1.81-11.45-6.11-10.76-8,1.29-16.9,4.37-20,11.87-2.31,5.67-.52,12.05.07,18.14a14,14,0,0,1-.17,4.83c-.66,2.57-2.48,4.65-4.24,6.64a35.17,35.17,0,0,0-6.09,8.54c-1.44,3.2-1.9,7-.41,10.2a7.24,7.24,0,0,1,1,2.69c.1,2.08-2.08,3.4-3.68,4.73-6,5-5.75,14-5.8,21.83a110.72,110.72,0,0,1-10.39,46.19,14.11,14.11,0,0,0,15.77-2.06,52.33,52.33,0,0,1-3.58,10.32c5.08,2.46,11.21-1.58,13.76-6.62s2.85-10.9,4.66-16.25,5-10,6.41-15.39c.45-1.78.73-3.68,1.82-5.16a13.71,13.71,0,0,1,3.2-2.73c5.24-3.76-2.48-32.25-.43-38.37,3,.67,8.65-14,11.84-29A15.1,15.1,0,0,0,176,304a8.53,8.53,0,0,1,2.47-.17,6.48,6.48,0,0,1,2.16.88A54.08,54.08,0,0,0,188,308.5c5.28,2,11.08,1.71,16.71,1.43A16.69,16.69,0,0,0,202.37,298Z" transform="translate(0 0)"/><g class="cls-31"><path d="M118.45,408.57a110.41,110.41,0,0,0,10.44-46.15c.05-7.8-.21-16.86,5.8-21.83,1.6-1.33,3.78-2.65,3.68-4.73a7.61,7.61,0,0,0-1-2.69c-1.49-3.18-1-7,.4-10.2a34.83,34.83,0,0,1,6.1-8.54c1.75-2,3.58-4.07,4.23-6.64a14,14,0,0,0,.18-4.83c-.6-6.09-2.38-12.47-.07-18.14,3-7.26,11.39-10.37,19.19-11.73a4.4,4.4,0,0,0-2.1-.14c-8,1.29-16.9,4.37-20,11.87-2.31,5.67-.52,12.05.07,18.14a14,14,0,0,1-.17,4.83c-.66,2.57-2.48,4.65-4.24,6.64a35.17,35.17,0,0,0-6.09,8.54c-1.44,3.2-1.9,7-.41,10.2a7.24,7.24,0,0,1,1,2.69c.1,2.08-2.08,3.4-3.68,4.73-6,5-5.75,14-5.8,21.83a110.73,110.73,0,0,1-10.39,46.15,13.71,13.71,0,0,0,7.73,1.45A13.2,13.2,0,0,1,118.45,408.57Z" transform="translate(0 0)"/><path d="M130.64,416.79a52.46,52.46,0,0,0,3.55-10.32,13.34,13.34,0,0,1-3.46,2.29,52.06,52.06,0,0,1-3,8,7.54,7.54,0,0,0,4.7.6A7.47,7.47,0,0,1,130.64,416.79Z" transform="translate(0 0)"/><path d="M174.27,283.67a16.85,16.85,0,0,1,4.64-1.08h-.55a16.19,16.19,0,0,0-4.11.31C174.26,283.12,174.27,283.39,174.27,283.67Z" transform="translate(0 0)"/><path d="M190.84,308.47a54,54,0,0,1-7.37-3.79,6.53,6.53,0,0,0-2.17-.88,7.45,7.45,0,0,0-2.26.14,10.11,10.11,0,0,1,1.56.74,54.08,54.08,0,0,0,7.38,3.79,33.08,33.08,0,0,0,12.34,1.6A28.86,28.86,0,0,1,190.84,308.47Z" transform="translate(0 0)"/><path d="M171.9,303.28a3.11,3.11,0,0,1-.14.66,15.12,15.12,0,0,0,3.62.1A16,16,0,0,1,171.9,303.28Z" transform="translate(0 0)"/></g><path class="cls-29" d="M121.24,416.16a9,9,0,0,1-2.4,7.11,15.35,15.35,0,0,1-3.39,2.49,8.88,8.88,0,0,1-4,1.51,7.61,7.61,0,0,1-5.14-2.23c-4.24-3.72-6.36-9.23-8.32-14.52-2.59-7-5.17-14.07-6.28-21.46-1.19-7.92-.68-16.12-2.95-23.81,2-4,3.3-8.46,5.59-12.34a57.38,57.38,0,0,0,3.85-7.22A25,25,0,0,0,98.88,329a2.25,2.25,0,0,1,2.66.14,5.46,5.46,0,0,1,1.6,2.33,20.66,20.66,0,0,1,1.6,9.79,3.79,3.79,0,0,0,.27,2.39,3,3,0,0,0,2.6,1.1,23.51,23.51,0,0,0,6-1.09,55.75,55.75,0,0,1,18.51-1.53,9,9,0,0,1,3.61.88,3.36,3.36,0,0,1,1.86,3l-14.8,2.17a6.1,6.1,0,0,0-3.11,1.06,2.1,2.1,0,0,0-.42,2.93,6.77,6.77,0,0,0,1,.68,3,3,0,0,1,.58,4.2,2.79,2.79,0,0,1-.7.67,3.47,3.47,0,0,0-1,.7c-.6.81.2,1.88.46,2.86a3.61,3.61,0,0,1-1.78,3.69,12.53,12.53,0,0,1-4.13,1.39,44.06,44.06,0,0,0-8.45,2.87,4.69,4.69,0,0,0-2.2,1.65c-.73,1.24-.25,2.8.25,4.15l3.86,10.38a45.93,45.93,0,0,0,2,4.83c1,2,2.19,3.94,3.2,6a62.48,62.48,0,0,1,2.41,5.81C116.69,407.37,120.58,410.57,121.24,416.16Z" transform="translate(0 0)"/><rect class="cls-32" x="254.79" y="348.82" width="46.13" height="44.66"/><rect class="cls-14" x="255.59" y="349.59" width="44.54" height="43.12"/><path class="cls-29" d="M292.41,346.19a4.59,4.59,0,0,0-1.69,2.47,1,1,0,0,0,.39,1.12,1.13,1.13,0,0,0,.68,0,6.36,6.36,0,0,0,3-1.41,3.1,3.1,0,0,0-.89.72,1,1,0,0,0-.12,1.08,1.4,1.4,0,0,0,1,.51,9.57,9.57,0,0,0,4.29-.2,5.93,5.93,0,0,0-1.78,1,2.38,2.38,0,0,0-.81,1.85.9.9,0,0,0,.32.69,1.2,1.2,0,0,0,.48.17,11.68,11.68,0,0,0,4,0,2,2,0,0,0,1.68-1,2.49,2.49,0,0,0-.39-1.93,10.82,10.82,0,0,1-1-4.88,1.9,1.9,0,0,0-.14-1,1.76,1.76,0,0,0-.89-.65c-1.41-.62-3.33-1.48-4.9-1A10.31,10.31,0,0,0,292.41,346.19Z" transform="translate(0 0)"/></svg>