<svg id="Layer_1" data-name="Layer 1" xmlns="http://www.w3.org/2000/svg" viewBox="0 0 282 96"><defs><style>.cls-1{fill:#fff;}.cls-2{fill:#ff7bac;}</style></defs><title>logo</title><path class="cls-1" d="M13.2,15.37A15.5,15.5,0,0,1,21,13.45V21H18.79A12.72,12.72,0,0,0,11,23.22q-3,2.22-3,7.34V49H1V14H8v6.57A13.33,13.33,0,0,1,13.2,15.37Z"/><path class="cls-1" d="M59.25,33H31.45q.19,5.58,3.08,8.26A10.12,10.12,0,0,0,41.68,44,10.4,10.4,0,0,0,48,42.05a7.83,7.83,0,0,0,3.18-5h8a15.47,15.47,0,0,1-3,6.75,15.67,15.67,0,0,1-6,4.63A19.64,19.64,0,0,1,42,50.05a18.82,18.82,0,0,1-9.28-2.23,15.87,15.87,0,0,1-6.33-6.43,20.31,20.31,0,0,1-2.29-9.9,20.14,20.14,0,0,1,2.29-9.83,15.87,15.87,0,0,1,6.33-6.43A18.93,18.93,0,0,1,42,13a18.81,18.81,0,0,1,9.28,2.2,15.32,15.32,0,0,1,6.1,6,17.34,17.34,0,0,1,2.13,8.56A16.88,16.88,0,0,1,59.25,33Zm-8.72-8.78A8.19,8.19,0,0,0,47,20.77a11,11,0,0,0-5-1.12,10.21,10.21,0,0,0-7.15,2.62c-1.92,1.75-3,4.32-3.13,7.73h20A10.79,10.79,0,0,0,50.53,24.22Z"/><path class="cls-1" d="M88.39,15.91A12.58,12.58,0,0,1,93,22.13V14h7V49H93V40.87a12.58,12.58,0,0,1-4.61,6.22,13,13,0,0,1-7.86,2.35,14.19,14.19,0,0,1-13.32-8.38,21.83,21.83,0,0,1-2-9.59,21.68,21.68,0,0,1,2-9.53,14.23,14.23,0,0,1,13.32-8.38A13,13,0,0,1,88.39,15.91ZM74.68,23.15c-1.94,2.06-2.91,4.91-2.91,8.53s1,6.46,2.91,8.52a10.12,10.12,0,0,0,7.76,3.1,10.57,10.57,0,0,0,5.5-1.44,10.18,10.18,0,0,0,3.83-4,12.87,12.87,0,0,0,1.4-6.13,12.89,12.89,0,0,0-1.4-6.1,10.23,10.23,0,0,0-3.83-4.09,10.57,10.57,0,0,0-5.5-1.44A10.12,10.12,0,0,0,74.68,23.15Z"/><path class="cls-1" d="M131.49,15.91A12.21,12.21,0,0,1,136,22.13V2h7V49h-7V40.87a12.17,12.17,0,0,1-4.51,6.22,12.83,12.83,0,0,1-7.79,2.35,14.38,14.38,0,0,1-7.82-2.15,14.61,14.61,0,0,1-5.39-6.23,22,22,0,0,1-1.94-9.59,21.82,21.82,0,0,1,1.94-9.53,14.58,14.58,0,0,1,5.39-6.22,14.39,14.39,0,0,1,7.82-2.16A12.83,12.83,0,0,1,131.49,15.91ZM117.8,23.15c-1.94,2.06-2.91,4.91-2.91,8.53s1,6.46,2.91,8.52a10.12,10.12,0,0,0,7.76,3.1,10.56,10.56,0,0,0,5.49-1.44,10.14,10.14,0,0,0,3.84-4,12.87,12.87,0,0,0,1.4-6.13,12.89,12.89,0,0,0-1.4-6.1,10.18,10.18,0,0,0-3.84-4.09,10.56,10.56,0,0,0-5.49-1.44A10.12,10.12,0,0,0,117.8,23.15Z"/><path class="cls-1" d="M156.47,14,167,39.9,176.8,14h8.13l-21.3,52h-8.12l7.61-17.59L148.28,14Z"/><path class="cls-1" d="M211.3,16.43A13.53,13.53,0,0,1,215.93,25h-7a7.54,7.54,0,0,0-2.49-4.69,8,8,0,0,0-5.4-1.78,6.36,6.36,0,0,0-4.3,1.33,4.52,4.52,0,0,0-1.52,3.59,3.54,3.54,0,0,0,1.1,2.71,7.68,7.68,0,0,0,2.75,1.62,45.63,45.63,0,0,0,4.69,1.29,47.36,47.36,0,0,1,6.5,1.88A10.6,10.6,0,0,1,214.54,34a8.62,8.62,0,0,1,1.78,5.73,8.93,8.93,0,0,1-3.4,7.24q-3.39,2.77-9.15,2.78-6.66,0-10.77-3.1A12.78,12.78,0,0,1,188.05,38h7.18a6.8,6.8,0,0,0,2.59,4.72,9.22,9.22,0,0,0,6,1.81,5.92,5.92,0,0,0,4.17-1.39,4.58,4.58,0,0,0,1.52-3.52,3.94,3.94,0,0,0-1.16-3,8.18,8.18,0,0,0-2.91-1.71,40.38,40.38,0,0,0-4.79-1.26,55.12,55.12,0,0,1-6.31-1.81,10,10,0,0,1-4.14-2.95,8.33,8.33,0,0,1-1.71-5.53,9.08,9.08,0,0,1,3.4-7.34q3.39-2.8,9.41-2.81Q207.52,13.23,211.3,16.43Z"/><path class="cls-1" d="M256.33,33H228.52q.19,5.58,3.09,8.26A10.08,10.08,0,0,0,238.75,44a10.4,10.4,0,0,0,6.33-1.9,7.83,7.83,0,0,0,3.18-5h8a15.47,15.47,0,0,1-3,6.75,15.67,15.67,0,0,1-6,4.63,19.64,19.64,0,0,1-8.2,1.67,18.82,18.82,0,0,1-9.28-2.23,15.87,15.87,0,0,1-6.33-6.43,20.31,20.31,0,0,1-2.29-9.9,20.14,20.14,0,0,1,2.29-9.83,15.87,15.87,0,0,1,6.33-6.43,20.55,20.55,0,0,1,18.56,0,15.26,15.26,0,0,1,6.1,6,17.34,17.34,0,0,1,2.13,8.56A17.81,17.81,0,0,1,256.33,33Zm-8.73-8.78A8.19,8.19,0,0,0,244,20.77a11,11,0,0,0-4.95-1.12,10.22,10.22,0,0,0-7.16,2.62C230,24,229,26.59,228.79,30h20A10.79,10.79,0,0,0,247.6,24.22Z"/><path class="cls-1" d="M281,43v6h-4.5q-5.65,0-8.58-2.71c-1.95-1.81-2.92-4.83-2.92-9V20h-5V14h5V5h8v9h8v6h-9V37.62c0,2,.39,3.44,1.18,4.21S275.34,43,277.31,43Z"/><path class="cls-2" d="M13.2,61.37A15.5,15.5,0,0,1,21,59.45V67H18.79A12.72,12.72,0,0,0,11,69.22q-3,2.22-3,7.34V95H1V60H8v6.57A13.33,13.33,0,0,1,13.2,61.37Z"/><path class="cls-2" d="M51.24,62a15.6,15.6,0,0,1,6.39,6.26,19.17,19.17,0,0,1,2.3,9.59,19.26,19.26,0,0,1-2.3,9.64,15.47,15.47,0,0,1-6.39,6.26A19.24,19.24,0,0,1,42.05,96a19.08,19.08,0,0,1-9.17-2.17,15.66,15.66,0,0,1-6.39-6.29,19.24,19.24,0,0,1-2.33-9.61,19.08,19.08,0,0,1,2.33-9.59A15.84,15.84,0,0,1,32.88,62a19.19,19.19,0,0,1,9.17-2.17A19.36,19.36,0,0,1,51.24,62ZM36.87,67.47a9.49,9.49,0,0,0-3.8,3.93,13.45,13.45,0,0,0-1.44,6.49,13.37,13.37,0,0,0,1.44,6.51,9.41,9.41,0,0,0,3.8,3.9,11.1,11.1,0,0,0,10.35,0A9.47,9.47,0,0,0,51,84.4a13.37,13.37,0,0,0,1.44-6.51A13.45,13.45,0,0,0,51,71.4a9.55,9.55,0,0,0-3.8-3.93,11.18,11.18,0,0,0-10.35,0Z"/><path class="cls-2" d="M85,89v7H80.5q-5.66,0-8.58-2.71c-2-1.81-2.92-4.83-2.92-9V66H64V60h5V51h7v9h8v6H76V83.62c0,2,.39,3.44,1.18,4.21S79.33,89,81.31,89Z"/><path class="cls-2" d="M114.4,61.91a12.62,12.62,0,0,1,4.6,6.22V60h7V95h-7V86.87a12.62,12.62,0,0,1-4.6,6.22,13,13,0,0,1-7.86,2.35,14.21,14.21,0,0,1-13.33-8.38,21.83,21.83,0,0,1-2-9.59,21.68,21.68,0,0,1,2-9.53,14.21,14.21,0,0,1,13.33-8.38A13,13,0,0,1,114.4,61.91Zm-14.32,7.45c-1.94,2.06-2.91,4.91-2.91,8.53s1,6.46,2.91,8.52a10.12,10.12,0,0,0,7.76,3.1,10.57,10.57,0,0,0,5.5-1.44,10.18,10.18,0,0,0,3.83-4,14.05,14.05,0,0,0,0-12.23,10.23,10.23,0,0,0-3.83-4.09,10.57,10.57,0,0,0-5.5-1.44A10.12,10.12,0,0,0,100.08,69.36Z"/></svg>