<svg id="Layer_1" data-name="Layer 1" xmlns="http://www.w3.org/2000/svg" viewBox="0 0 303.25 324.85"><defs><style>.cls-1{fill:#fd809e;}.cls-2{fill:#222735;}.cls-3{fill:none;}</style></defs><title>logo-rs</title><path class="cls-1" d="M256.71,253.8q-7.23,12.9-22,21.06T198.39,283q-21,0-37.41-7.66a66.52,66.52,0,0,1-26.15-21,59.53,59.53,0,0,1-11.26-30.5h29.14a41.33,41.33,0,0,0,21.19,31.7q9.76,5.57,23.59,5.57,18,0,27.65-9.65t9.61-24.65q0-12.92-6.76-21a48.08,48.08,0,0,0-16.67-12.78,229.1,229.1,0,0,0-27-10.06A274.15,274.15,0,0,1,152,170.41a55.2,55.2,0,0,1-20.77-17.58q-8.56-11.72-8.57-31,0-16.52,8-29.14t22.88-19.55q14.84-6.9,35-6.9,31.28,0,49.59,15.17A58.12,58.12,0,0,1,259.39,120H230Q227.54,107.42,217,97.77t-28.57-9.56q-16.51,0-26.44,8.56T152.09,121q0,12.33,6.46,20a44.91,44.91,0,0,0,16.08,12,259.61,259.61,0,0,0,26.45,9.77A269.39,269.39,0,0,1,234,175.35a55.7,55.7,0,0,1,21.25,18.19q8.7,12.18,8.71,32.3A56.34,56.34,0,0,1,256.71,253.8Z"/><path class="cls-2" d="M96.44,167.27l28.51-1,.09.11-.08-.1q27.35-3.92,41.77-19.69T181.15,105q0-28.54-18-45.82T109,41.87H39.3V253.76H66.63V167.22H96.38ZM66.63,65.62h40q46.58,0,46.58,40.86t-46.58,40.9h-40Z"/><path class="cls-2" d="M56.32,189.26c6.5-4.29,14.93-6.49,25.43-6.49q18,0,28.55,8t12.93,18.38h29.44q-3-19.35-21.33-31.86T81.75,164.66a112,112,0,0,0-22.12,2.15C58.72,174.12,56.82,181.79,56.32,189.26Z"/><path class="cls-3" d="M162,96.78q-8,6.91-9.55,18.44h37.57v-27h-1.58Q172,88.22,162,96.78Z"/><path class="cls-3" d="M153.47,73.18q14.84-6.9,35-6.9h1.58V55.36H138V83.64A55.88,55.88,0,0,1,153.47,73.18Z"/><path class="cls-1" d="M153.47,73.18A55.88,55.88,0,0,0,138,83.64v31.57h14.49Q154,103.69,162,96.78q9.93-8.57,26.42-8.57H190V66.29h-1.58Q168.35,66.28,153.47,73.18Z"/></svg>