<svg id="Layer_1" data-name="Layer 1" xmlns="http://www.w3.org/2000/svg" viewBox="0 0 1356.03 324.85"><defs><style>.cls-1{fill:#fd809e;}.cls-2{fill:#222735;}.cls-3{fill:none;}</style></defs><title>logo-3</title><path class="cls-1" d="M293,285.61Q283.25,303,263.4,314t-49,10.94q-28.35,0-50.42-10.32t-35.24-28.36a80.21,80.21,0,0,1-15.18-41.1h39.28a55.69,55.69,0,0,0,28.55,42.72q13.17,7.5,31.8,7.5,24.28,0,37.26-13t12.95-33.22q0-17.4-9.11-28.34a64.69,64.69,0,0,0-22.47-17.22q-13.37-6.27-36.45-13.56-27.13-8.91-43.54-16.81a74.37,74.37,0,0,1-28-23.69q-11.53-15.79-11.54-41.72,0-22.26,10.73-39.28T153.86,42.2q20-9.3,47.17-9.31,42.14,0,66.83,20.45t28.75,52H256.93q-3.26-17-17.42-30T201,62.45q-22.26,0-35.63,11.54T152,106.6q0,16.61,8.71,26.93a60.57,60.57,0,0,0,21.67,16.2q13,5.88,35.64,13.16,27.52,8.91,44.34,17A75,75,0,0,1,291,204.41q11.73,16.4,11.74,43.53A76,76,0,0,1,293,285.61Z" transform="translate(0.03 -0.04)"/><path class="cls-2" d="M77,169l38.42-1.28.12.15-.1-.14q36.84-5.27,56.29-26.53t19.44-56.09q0-38.48-24.3-61.76T93.94,0H0V285.56H36.83V168.93H76.92ZM36.83,32H90.69q62.77,0,62.78,55.08T90.69,142.2H36.83Z" transform="translate(0.03 -0.04)"/><path class="cls-2" d="M22.93,205.63c8.76-7,20.12-10.59,34.27-10.59q24.3,0,38.48,13t17.42,30h39.68q-4-31.6-28.75-52T57.2,165.48A125.36,125.36,0,0,0,27.39,169C26.17,180.93,23.6,193.44,22.93,205.63Z" transform="translate(0.03 -0.04)"/><path class="cls-3" d="M165.4,74q-10.78,9.33-12.87,24.85h50.63V62.48q-1,0-2.13,0Q178.77,62.45,165.4,74Z" transform="translate(0.03 -0.04)"/><path class="cls-3" d="M153.86,42.2q20-9.3,47.17-9.31l2.13,0V18.18H133V56.29A75.18,75.18,0,0,1,153.86,42.2Z" transform="translate(0.03 -0.04)"/><path class="cls-1" d="M153.86,42.2A75.18,75.18,0,0,0,133,56.29V98.84h19.52Q154.61,83.32,165.4,74,178.77,62.46,201,62.45q1.08,0,2.13,0V32.91l-2.13,0Q173.91,32.89,153.86,42.2Z" transform="translate(0.03 -0.04)"/><path class="cls-2" d="M366,127.46a15.07,15.07,0,0,1,6.66-9.62q12.19,3,16.08,16.46,7.59-16.46,24.23-16.46a46,46,0,0,1,9.61,1.11q0,10-4.25,16.83-1.11-.18-7.4-.74-12.94,0-20.34,14.42V210.3a54.67,54.67,0,0,1-17.93,0v-64Q372.66,133.75,366,127.46Z" transform="translate(0.03 -0.04)"/><path class="cls-2" d="M505.61,170.36H450.69q.56,13.13,5.54,20.34t16.65,7.21q11.64,0,25.7-7.21a19.79,19.79,0,0,1,5.73,11.65q-14.79,10.35-34.67,10.35T441,199.39q-8.79-13.32-8.78-34.67t9.89-34.67q9.89-13.32,27.74-13.32t27.45,11.19q9.62,11.19,9.62,28.38A77.75,77.75,0,0,1,505.61,170.36ZM484.8,137q-4.71-6.93-14.14-6.93t-14.43,7.12q-5,7.11-5.54,20.06h38.83v-2.4Q489.52,143.91,484.8,137Z" transform="translate(0.03 -0.04)"/><path class="cls-2" d="M601,202.35a14.39,14.39,0,0,1-7,9.24q-10.17-2-14-11.83-13.32,12.94-27.18,12.94t-21-8.13a28,28,0,0,1-7.12-19q0-15.17,9.71-22.84T560,155a127,127,0,0,1,18.3,1.29v-7.58q0-16.82-15.53-16.82-12,0-29.4,7.21-5-5-5.36-13.32,19.41-8.49,37.91-8.5,14.24,0,22.09,7.76t7.86,23.12v37.91Q595.84,197.92,601,202.35Zm-45.49-4.07q12.39,0,22.74-12V168.51a131.42,131.42,0,0,0-16.64-.93q-9.42,0-14.24,4.44a14.91,14.91,0,0,0-4.8,11.47c0,4.68,1.13,8.32,3.42,10.91S551.46,198.28,555.53,198.28Z" transform="translate(0.03 -0.04)"/><path class="cls-2" d="M648.63,212.7q-15.61,0-23.76-12.76t-8.13-35q0-22.28,10.45-34.76t24.68-12.48q10.35,0,21.45,6.29V75.5l1.11-1.11h6.84c3.7,0,6.23.9,7.58,2.68s2,4.72,2,8.78v98.56q0,13.32,5.17,17.94a14.38,14.38,0,0,1-7,9.24,17.61,17.61,0,0,1-13.69-11.65Q664.27,212.71,648.63,212.7Zm3.61-15q12.21,0,21.08-12.21V139.11q-10.35-7-19-7t-14.06,8.6q-5.44,8.59-5.45,24.87t4.9,24.22Q644.65,197.74,652.24,197.73Z" transform="translate(0.03 -0.04)"/><path class="cls-2" d="M789.63,120.62l-24.78,86.72q-6.66,23.11-15.16,33.19t-25.52,10.08a51.25,51.25,0,0,1-17-2.77v-1.67A17.89,17.89,0,0,1,711,234.89a40.31,40.31,0,0,0,14.15,2.22,16.43,16.43,0,0,0,13.22-5.92q5-5.91,8.69-17.93l.55-2q-5.73-.36-8.87-2.4t-4.81-7.4l-24.59-81a26.24,26.24,0,0,1,10.72-2.59c4.56,0,7.64,2.66,9.25,8l12.94,43.46q1.11,3.51,7.21,27.55a1.6,1.6,0,0,0,1.67,1.29l20.89-78.95a34.21,34.21,0,0,1,8-.74,28.14,28.14,0,0,1,8.88,1.29Z" transform="translate(0.03 -0.04)"/><path class="cls-2" d="M797.76,203.46a18.57,18.57,0,0,1,1.94-6.84,16.75,16.75,0,0,1,4.17-5.74q15.15,8.33,24.5,8.33t14-3.43a11,11,0,0,0,4.8-8.78q0-8.5-12-13.13l-10.35-4.07q-23.67-8.87-23.67-26.07,0-12.39,9.16-19.69t24-7.31a68.42,68.42,0,0,1,28.94,6.48,17.25,17.25,0,0,1-1.39,7.39,14.86,14.86,0,0,1-4,5.92q-13.5-5.91-24.59-5.92-6.3,0-10.17,3.05a9.4,9.4,0,0,0-3.89,7.68,9.5,9.5,0,0,0,2.87,7.3q2.86,2.69,9.15,5.09l11.1,4.06q23.29,9.08,23.3,27.74a23.63,23.63,0,0,1-9.71,19.79q-9.7,7.4-26.26,7.39A61,61,0,0,1,797.76,203.46Z" transform="translate(0.03 -0.04)"/><path class="cls-2" d="M954.57,170.36H899.65q.55,13.13,5.54,20.34t16.65,7.21q11.64,0,25.7-7.21a19.79,19.79,0,0,1,5.73,11.65Q938.48,212.7,918.6,212.7t-28.66-13.31q-8.79-13.32-8.78-34.67t9.89-34.67q9.88-13.32,27.74-13.32t27.45,11.19q9.62,11.19,9.62,28.38A77.75,77.75,0,0,1,954.57,170.36ZM933.76,137q-4.71-6.93-14.14-6.93t-14.43,7.12q-5,7.11-5.54,20.06h38.83v-2.4Q938.48,143.91,933.76,137Z" transform="translate(0.03 -0.04)"/><path class="cls-2" d="M1024.09,119a29.65,29.65,0,0,1,.74,6.75,27.23,27.23,0,0,1-.74,6.57l-23.11-.19v56.77q0,8,7.58,8h12.94a19.49,19.49,0,0,1,1.48,7.67,44.72,44.72,0,0,1-.18,5.27,168.79,168.79,0,0,1-20.34,1.3q-18.87,0-18.86-18.12V132.08l-13.5.19a26.73,26.73,0,0,1-.74-6.57,29.09,29.09,0,0,1,.74-6.75l13.5.19V102.31c0-4.19.67-7.15,2-8.87s3.88-2.59,7.58-2.59h6.66L1001,92v27.36Z" transform="translate(0.03 -0.04)"/><path class="cls-1" d="M1035.74,131a24.9,24.9,0,0,1,3.33-8,23.42,23.42,0,0,1,5.18-6.29q16.45,1.67,22.56,16.65,7-16.45,23.29-16.46a49.15,49.15,0,0,1,12,1.48,54.48,54.48,0,0,1-1.85,12.85,47.91,47.91,0,0,1-5,12.85,37.47,37.47,0,0,0-9.24-1.66q-9.81,0-15.91,10V210.3a70,70,0,0,1-13.5,1.11,79.19,79.19,0,0,1-14.05-1.11V150Q1042.58,136.15,1035.74,131Z" transform="translate(0.03 -0.04)"/><path class="cls-1" d="M1179.6,126.17q13.31,13.3,13.31,38t-13.31,38q-10.92,10.92-29,10.91t-29-10.91q-13.32-13.31-13.32-38t13.32-38q10.9-10.73,29-10.73T1179.6,126.17Zm-40.22,17.19q-2.87,7.39-2.87,20.9t2.87,20.8q2.86,7.31,11.19,7.3t11.18-7.3q2.87-7.31,2.87-20.8t-2.87-20.9q-2.87-7.4-11.18-7.39T1139.38,143.36Z" transform="translate(0.03 -0.04)"/><path class="cls-1" d="M1262.81,118a43.82,43.82,0,0,1,0,19.6l-22.19-.37v44.19q0,8.7,8.13,8.69h10.73A38,38,0,0,1,1261.7,202a26,26,0,0,1-.74,7.39,177.42,177.42,0,0,1-24.41,1.85q-22.74,0-22.74-24.77v-49l-14.43.19a37.63,37.63,0,0,1-1.11-9.8,37.63,37.63,0,0,1,1.11-9.8l14.43.18V106.93q0-9.24,3.32-12.94t11.47-3.7h10.72l1.3,1.3V118.4Z" transform="translate(0.03 -0.04)"/><path class="cls-1" d="M1356,197.54a24,24,0,0,1-3.42,8,24.91,24.91,0,0,1-5.27,6.29q-12.76-.56-19.23-9.8-11.83,11.09-26.17,11.09t-21.63-8.5a29,29,0,0,1-7.31-19.42q0-15.72,10.45-23.85t26-8.14q6.11,0,13.87.56v-4.07q0-12.21-12.57-12.21-8,0-27.56,5.92-5.54-6.47-6.65-19.23a99.54,99.54,0,0,1,20.61-5.92,117.31,117.31,0,0,1,21.18-2.22q13.86,0,23.2,7.68t9.34,23.76v37.72Q1350.82,193.85,1356,197.54Zm-47.15-5q7.2,0,14.42-6.1V171.1c-2.71-.12-6.41-.19-11.09-.19q-12.4,0-12.39,12.39a9.31,9.31,0,0,0,2.49,6.57A8.58,8.58,0,0,0,1308.85,192.55Z" transform="translate(0.03 -0.04)"/></svg>