<svg id="Layer_1" data-name="Layer 1" xmlns="http://www.w3.org/2000/svg" xmlns:xlink="http://www.w3.org/1999/xlink" viewBox="0 0 618 558"><defs><style>.cls-1{fill:none;}.cls-2{fill:#1a1a1a;}.cls-3{fill:url(#linear-gradient);}.cls-4{opacity:0.14;}.cls-5{clip-path:url(#clip-path);}.cls-6{fill:#ee6de7;}.cls-6,.cls-7{opacity:0.44;}.cls-7{fill:#e0e0e0;}.cls-8{fill:#fff;}.cls-9{fill:#ff7bac;}</style><linearGradient id="linear-gradient" x1="190.3" y1="169.55" x2="175.7" y2="14.45" gradientUnits="userSpaceOnUse"><stop offset="0" stop-color="#ff7bac"/><stop offset="0.31" stop-color="#ff7bac" stop-opacity="0.68"/><stop offset="0.79" stop-color="#ff7bac" stop-opacity="0.19"/><stop offset="1" stop-color="#ff7bac" stop-opacity="0"/></linearGradient><clipPath id="clip-path" transform="translate(27 14)"><rect class="cls-1" x="11.67" y="19.1" width="342.65" height="145.79" rx="25" transform="translate(-7.82 17.56) rotate(-5.38)"/></clipPath></defs><title>logo</title><rect class="cls-2" x="11.67" y="19.1" width="342.65" height="145.79" rx="25" transform="translate(19.18 31.56) rotate(-5.38)"/><path class="cls-3" d="M324.22,5.59a25,25,0,0,1,24.86,22.66l9,95.37a25,25,0,0,1-22.54,27.24L44.15,178.3c-.79.07-1.59.11-2.37.11a25,25,0,0,1-24.86-22.66l-9-95.37A25,25,0,0,1,30.48,33.14L321.85,5.71a23.66,23.66,0,0,1,2.37-.12m0-5v0h0c-.94,0-1.9.05-2.84.14L30,28.16A30.05,30.05,0,0,0,3,60.85l9,95.37a30,30,0,0,0,29.84,27.19c.94,0,1.9,0,2.84-.14L336,155.84A30.05,30.05,0,0,0,363,123.15l-9-95.37A30,30,0,0,0,324.22.59Z" transform="translate(27 14)"/><g class="cls-4"><g class="cls-5"><rect class="cls-6" y="1" width="121" height="59" rx="10"/><rect class="cls-6" x="124" y="1" width="121" height="59" rx="10"/><rect class="cls-6" x="248" width="121" height="59" rx="10"/><rect class="cls-6" x="373" y="1" width="121" height="59" rx="10"/><rect class="cls-6" x="497" width="121" height="59" rx="10"/><rect class="cls-7" y="64" width="121" height="59" rx="10"/><rect class="cls-6" x="124" y="64" width="121" height="59" rx="10"/><rect class="cls-6" x="248" y="62" width="121" height="59" rx="10"/><rect class="cls-6" x="373" y="64" width="121" height="59" rx="10"/><rect class="cls-7" x="497" y="62" width="121" height="59" rx="10"/><rect class="cls-6" y="126" width="121" height="59" rx="10"/><rect class="cls-6" x="124" y="126" width="121" height="59" rx="10"/><rect class="cls-7" x="248" y="125" width="121" height="59" rx="10"/><rect class="cls-7" x="373" y="126" width="121" height="59" rx="10"/><rect class="cls-6" x="497" y="125" width="121" height="59" rx="10"/><rect class="cls-6" y="188" width="121" height="59" rx="10"/><rect class="cls-6" x="124" y="188" width="121" height="59" rx="10"/><rect class="cls-6" x="248" y="187" width="121" height="59" rx="10"/><rect class="cls-6" x="373" y="188" width="121" height="59" rx="10"/><rect class="cls-6" x="497" y="187" width="121" height="59" rx="10"/><rect class="cls-6" y="250" width="121" height="59" rx="10"/><rect class="cls-7" x="124" y="250" width="121" height="59" rx="10"/><rect class="cls-6" x="248" y="249" width="121" height="59" rx="10"/><rect class="cls-7" x="373" y="250" width="121" height="59" rx="10"/><rect class="cls-6" x="497" y="249" width="121" height="59" rx="10"/><rect class="cls-7" y="312" width="121" height="59" rx="10"/><rect class="cls-6" x="124" y="312" width="121" height="59" rx="10"/><rect class="cls-6" x="248" y="311" width="121" height="59" rx="10"/><rect class="cls-6" x="373" y="312" width="121" height="59" rx="10"/><rect class="cls-6" x="497" y="311" width="121" height="59" rx="10"/><rect class="cls-6" y="375" width="121" height="59" rx="10"/><rect class="cls-6" x="124" y="375" width="121" height="59" rx="10"/><rect class="cls-6" x="248" y="374" width="121" height="59" rx="10"/><rect class="cls-7" x="373" y="375" width="121" height="59" rx="10"/><rect class="cls-6" x="497" y="374" width="121" height="59" rx="10"/><rect class="cls-7" y="437" width="121" height="59" rx="10"/><rect class="cls-6" x="124" y="437" width="121" height="59" rx="10"/><rect class="cls-7" x="248" y="436" width="121" height="59" rx="10"/><rect class="cls-7" x="373" y="437" width="121" height="59" rx="10"/><rect class="cls-7" x="497" y="436" width="121" height="59" rx="10"/><rect class="cls-6" y="499" width="121" height="59" rx="10"/><rect class="cls-6" x="124" y="499" width="121" height="59" rx="10"/><rect class="cls-6" x="248" y="498" width="121" height="59" rx="10"/><rect class="cls-6" x="373" y="499" width="121" height="59" rx="10"/><rect class="cls-6" x="497" y="498" width="121" height="59" rx="10"/></g></g><path class="cls-8" d="M55.2,58.37A15.5,15.5,0,0,1,63,56.45V64H60.79A12.72,12.72,0,0,0,53,66.22q-3,2.22-3,7.34V92H43V57h7v6.57A13.33,13.33,0,0,1,55.2,58.37Z" transform="translate(27 14)"/><path class="cls-8" d="M101.25,76H73.45q.19,5.58,3.08,8.26A10.12,10.12,0,0,0,83.68,87,10.4,10.4,0,0,0,90,85.05a7.83,7.83,0,0,0,3.18-5h8a15.47,15.47,0,0,1-3,6.75,15.67,15.67,0,0,1-6,4.63A19.64,19.64,0,0,1,84,93.05a18.82,18.82,0,0,1-9.28-2.23,15.87,15.87,0,0,1-6.33-6.43,20.31,20.31,0,0,1-2.29-9.9,20.14,20.14,0,0,1,2.29-9.83,15.87,15.87,0,0,1,6.33-6.43,20.55,20.55,0,0,1,18.56,0,15.32,15.32,0,0,1,6.1,6,17.34,17.34,0,0,1,2.13,8.56A16.88,16.88,0,0,1,101.25,76Zm-8.72-8.78A8.19,8.19,0,0,0,89,63.77a11,11,0,0,0-5-1.12,10.21,10.21,0,0,0-7.15,2.62c-1.92,1.75-3,4.32-3.13,7.73h20A10.79,10.79,0,0,0,92.53,67.22Z" transform="translate(27 14)"/><path class="cls-8" d="M130.39,58.91A12.58,12.58,0,0,1,135,65.13V57h7V92h-7V83.87a12.58,12.58,0,0,1-4.61,6.22,13,13,0,0,1-7.86,2.35,14.19,14.19,0,0,1-13.32-8.38,21.83,21.83,0,0,1-2-9.59,21.68,21.68,0,0,1,2-9.53,14.23,14.23,0,0,1,13.32-8.38A13,13,0,0,1,130.39,58.91Zm-13.71,7.24c-1.94,2.06-2.91,4.91-2.91,8.53s1,6.46,2.91,8.52a10.12,10.12,0,0,0,7.76,3.1,10.57,10.57,0,0,0,5.5-1.44,10.18,10.18,0,0,0,3.83-4,14.05,14.05,0,0,0,0-12.23,10.23,10.23,0,0,0-3.83-4.09,10.57,10.57,0,0,0-5.5-1.44A10.12,10.12,0,0,0,116.68,66.15Z" transform="translate(27 14)"/><path class="cls-8" d="M173.49,58.91A12.21,12.21,0,0,1,178,65.13V45h7V92h-7V83.87a12.17,12.17,0,0,1-4.51,6.22,12.83,12.83,0,0,1-7.79,2.35,14.38,14.38,0,0,1-7.82-2.15,14.61,14.61,0,0,1-5.39-6.23,22,22,0,0,1-1.94-9.59,21.82,21.82,0,0,1,1.94-9.53,14.58,14.58,0,0,1,5.39-6.22,14.39,14.39,0,0,1,7.82-2.16A12.83,12.83,0,0,1,173.49,58.91ZM159.8,66.15c-1.94,2.06-2.91,4.91-2.91,8.53s1,6.46,2.91,8.52a10.12,10.12,0,0,0,7.76,3.1,10.56,10.56,0,0,0,5.49-1.44,10.14,10.14,0,0,0,3.84-4,14.05,14.05,0,0,0,0-12.23,10.18,10.18,0,0,0-3.84-4.09,10.56,10.56,0,0,0-5.49-1.44A10.12,10.12,0,0,0,159.8,66.15Z" transform="translate(27 14)"/><path class="cls-8" d="M198.47,57,209,82.9,218.8,57h8.13l-21.3,52h-8.12l7.61-17.59L190.28,57Z" transform="translate(27 14)"/><path class="cls-8" d="M253.3,59.43A13.53,13.53,0,0,1,257.93,68h-7a7.54,7.54,0,0,0-2.49-4.69,8,8,0,0,0-5.4-1.78,6.36,6.36,0,0,0-4.3,1.33,4.52,4.52,0,0,0-1.52,3.59,3.54,3.54,0,0,0,1.1,2.71,7.68,7.68,0,0,0,2.75,1.62,45.63,45.63,0,0,0,4.69,1.29,47.36,47.36,0,0,1,6.5,1.88A10.6,10.6,0,0,1,256.54,77a8.62,8.62,0,0,1,1.78,5.73,8.93,8.93,0,0,1-3.4,7.24q-3.39,2.78-9.15,2.78-6.66,0-10.77-3.1A12.78,12.78,0,0,1,230.05,81h7.18a6.8,6.8,0,0,0,2.59,4.72,9.22,9.22,0,0,0,6,1.81,5.92,5.92,0,0,0,4.17-1.39,4.58,4.58,0,0,0,1.52-3.52,3.94,3.94,0,0,0-1.16-3,8.18,8.18,0,0,0-2.91-1.71,40.38,40.38,0,0,0-4.79-1.26,55.12,55.12,0,0,1-6.31-1.81,10,10,0,0,1-4.14-3,8.33,8.33,0,0,1-1.71-5.53,9.08,9.08,0,0,1,3.4-7.34q3.39-2.8,9.41-2.81Q249.52,56.23,253.3,59.43Z" transform="translate(27 14)"/><path class="cls-8" d="M298.33,76H270.52q.19,5.58,3.09,8.26A10.08,10.08,0,0,0,280.75,87a10.4,10.4,0,0,0,6.33-1.9,7.83,7.83,0,0,0,3.18-5h8a15.47,15.47,0,0,1-3,6.75,15.67,15.67,0,0,1-6,4.63,19.64,19.64,0,0,1-8.2,1.67,18.82,18.82,0,0,1-9.28-2.23,15.87,15.87,0,0,1-6.33-6.43,20.31,20.31,0,0,1-2.29-9.9,20.14,20.14,0,0,1,2.29-9.83,15.87,15.87,0,0,1,6.33-6.43,20.55,20.55,0,0,1,18.56,0,15.26,15.26,0,0,1,6.1,6,17.34,17.34,0,0,1,2.13,8.56A17.81,17.81,0,0,1,298.33,76Zm-8.73-8.78A8.19,8.19,0,0,0,286,63.77a11,11,0,0,0-4.95-1.12,10.22,10.22,0,0,0-7.16,2.62C272,67,271,69.59,270.79,73h20A10.79,10.79,0,0,0,289.6,67.22Z" transform="translate(27 14)"/><path class="cls-8" d="M323,86v6h-4.5q-5.65,0-8.58-2.71c-1.95-1.81-2.92-4.83-2.92-9V63h-5V57h5V48h8v9h8v6h-9V80.62c0,2,.39,3.44,1.18,4.21S317.34,86,319.31,86Z" transform="translate(27 14)"/><path class="cls-9" d="M55.2,104.37a15.5,15.5,0,0,1,7.8-1.92V110H60.79A12.72,12.72,0,0,0,53,112.22q-3,2.22-3,7.34V138H43V103h7v6.57A13.33,13.33,0,0,1,55.2,104.37Z" transform="translate(27 14)"/><path class="cls-9" d="M93.24,105a15.6,15.6,0,0,1,6.39,6.26,21.25,21.25,0,0,1,0,19.23,15.47,15.47,0,0,1-6.39,6.26,20.5,20.5,0,0,1-18.36,0,15.66,15.66,0,0,1-6.39-6.29,20.94,20.94,0,0,1,0-19.2A15.84,15.84,0,0,1,74.88,105a20.5,20.5,0,0,1,18.36,0Zm-14.37,5.43a9.49,9.49,0,0,0-3.8,3.93,15.39,15.39,0,0,0,0,13,9.41,9.41,0,0,0,3.8,3.9,11.1,11.1,0,0,0,10.35,0,9.47,9.47,0,0,0,3.8-3.9,15.39,15.39,0,0,0,0-13,9.55,9.55,0,0,0-3.8-3.93,11.18,11.18,0,0,0-10.35,0Z" transform="translate(27 14)"/><path class="cls-9" d="M127,132v7h-4.5q-5.66,0-8.58-2.71c-2-1.81-2.92-4.83-2.92-9V109h-5v-6h5V94h7v9h8v6h-8v17.62c0,2,.39,3.44,1.18,4.21s2.15,1.17,4.13,1.17Z" transform="translate(27 14)"/><path class="cls-9" d="M156.4,104.91a12.62,12.62,0,0,1,4.6,6.22V103h7v35h-7v-8.13a12.62,12.62,0,0,1-4.6,6.22,13,13,0,0,1-7.86,2.35,14.21,14.21,0,0,1-13.33-8.38,24.29,24.29,0,0,1,0-19.12,14.21,14.21,0,0,1,13.33-8.38A13,13,0,0,1,156.4,104.91Zm-14.32,7.45c-1.94,2.06-2.91,4.91-2.91,8.53s1,6.46,2.91,8.52a10.12,10.12,0,0,0,7.76,3.1,10.57,10.57,0,0,0,5.5-1.44,10.18,10.18,0,0,0,3.83-4,14.05,14.05,0,0,0,0-12.23,10.23,10.23,0,0,0-3.83-4.09,10.57,10.57,0,0,0-5.5-1.44A10.12,10.12,0,0,0,142.08,112.36Z" transform="translate(27 14)"/></svg>