<svg id="Layer_1" data-name="Layer 1" xmlns="http://www.w3.org/2000/svg" viewBox="0 0 1000 340"><defs><style>.cls-1{fill:#fff;}.cls-2{fill:#ec70c9;}</style></defs><title>Untitled-3</title><path class="cls-1" d="M45.4,51.56q12-6.83,27.74-6.82V71.59H65.28q-17.34,0-27.86,7.9T26.9,105.58v65.61H2V46.69H26.9V70.07A47.3,47.3,0,0,1,45.4,51.56Z"/><path class="cls-1" d="M209.22,114.27H110.33q.69,19.83,11,29.39t25.42,9.56q13.29,0,22.51-6.76a27.94,27.94,0,0,0,11.31-18H209A54.64,54.64,0,0,1,177,169a69.61,69.61,0,0,1-29.15,5.95q-18.67,0-33-7.93a56.43,56.43,0,0,1-22.5-22.86q-8.18-14.92-8.17-35.22,0-20.05,8.17-35a56.43,56.43,0,0,1,22.5-22.86q14.35-7.92,33-7.93,18.88,0,33,7.82a54.3,54.3,0,0,1,21.69,21.46,61.61,61.61,0,0,1,7.58,30.43A61.83,61.83,0,0,1,209.22,114.27ZM178.19,83a29.29,29.29,0,0,0-12.72-12.28,39.44,39.44,0,0,0-17.61-4q-15.23,0-25.45,9.32T111.27,103.6H182.4Q182.85,91.33,178.19,83Z"/><path class="cls-1" d="M312.87,53.46a44.92,44.92,0,0,1,16.39,22.15V46.69h24.9v124.5h-24.9V142.26a44.88,44.88,0,0,1-16.39,22.15q-11.58,8.35-28,8.36a52,52,0,0,1-28.06-7.68q-12.35-7.68-19.33-22.15t-7-34.12q0-19.42,7-33.89t19.33-22.14a52,52,0,0,1,28.06-7.68Q301.3,45.11,312.87,53.46ZM264.09,79.23q-10.35,11-10.34,30.33t10.34,30.34q10.34,11,27.61,11a37.71,37.71,0,0,0,19.54-5.11,36.35,36.35,0,0,0,13.63-14.43q5-9.31,5-21.82a45.68,45.68,0,0,0-5-21.7,36.2,36.2,0,0,0-13.63-14.54A37.62,37.62,0,0,0,291.7,68.2Q274.42,68.2,264.09,79.23Z"/><path class="cls-1" d="M466.19,53.48a43.54,43.54,0,0,1,16,22.14V4h24.9V171.19h-24.9V142.27a43.54,43.54,0,0,1-16,22.14q-11.49,8.35-27.72,8.36a51.21,51.21,0,0,1-27.82-7.68q-12.24-7.68-19.17-22.15t-6.93-34.11q0-19.42,6.93-33.89T410.65,52.8a51.21,51.21,0,0,1,27.82-7.68Q454.72,45.12,466.19,53.48ZM417.47,79.23q-10.35,11-10.34,30.33t10.34,30.34q10.33,11,27.61,11a37.71,37.71,0,0,0,19.54-5.11,36.28,36.28,0,0,0,13.63-14.43q5-9.31,5-21.82a45.68,45.68,0,0,0-5-21.7,36.13,36.13,0,0,0-13.63-14.54,37.62,37.62,0,0,0-19.54-5.12Q427.8,68.2,417.47,79.23Z"/><path class="cls-1" d="M555,46.69l37.54,92.14,34.81-92.14h28.9l-75.76,185H551.6l27.08-62.57L525.89,46.69Z"/><path class="cls-1" d="M750.08,55.33q13.45,11.39,16.45,30.48H741.68a26.84,26.84,0,0,0-8.86-16.67q-7.25-6.33-19.21-6.33-9.89,0-15.3,4.72t-5.4,12.76A12.67,12.67,0,0,0,696.82,90a27.22,27.22,0,0,0,9.78,5.75,168.38,168.38,0,0,0,16.68,4.6A167.73,167.73,0,0,1,746.4,107a37.54,37.54,0,0,1,15.18,10.93q6.33,7.47,6.33,20.36,0,15.87-12.08,25.77t-32.55,9.89q-23.7,0-38.31-11t-17.6-30.83h25.54a24.06,24.06,0,0,0,9.2,16.79q8.05,6.45,21.17,6.44,9.42,0,14.83-4.94a16.25,16.25,0,0,0,5.41-12.54q0-6.67-4.14-10.58a28.72,28.72,0,0,0-10.35-6.1,144.35,144.35,0,0,0-17-4.49,186.8,186.8,0,0,1-22.43-6.44,34.8,34.8,0,0,1-14.72-10.47q-6.11-7.24-6.1-19.67,0-16.1,12.08-26.11t33.47-10Q736.62,43.94,750.08,55.33Z"/><path class="cls-1" d="M910.23,114.27h-98.9q.7,19.83,11,29.39t25.42,9.56q13.29,0,22.51-6.76a27.94,27.94,0,0,0,11.31-18H910A54.64,54.64,0,0,1,878,169a69.65,69.65,0,0,1-29.15,5.95q-18.66,0-33-7.93a56.45,56.45,0,0,1-22.51-22.86q-8.16-14.92-8.16-35.22,0-20.05,8.16-35a56.45,56.45,0,0,1,22.51-22.86q14.36-7.92,33-7.93,18.89,0,33,7.82a54.37,54.37,0,0,1,21.69,21.46,61.61,61.61,0,0,1,7.58,30.43A61.83,61.83,0,0,1,910.23,114.27ZM879.2,83a29.29,29.29,0,0,0-12.72-12.28,39.44,39.44,0,0,0-17.61-4q-15.23,0-25.45,9.32T812.28,103.6h71.13Q883.86,91.33,879.2,83Z"/><path class="cls-1" d="M998,149.84v21.35H982q-20.12,0-30.51-9.66t-10.4-32.15V68H923.3V46.69h17.79v-32h28.45v32H998V68H966v62.68q0,10.85,4.18,15t14.69,4.15Z"/><path class="cls-2" d="M45.4,215.19q12-6.83,27.74-6.83v26.85H65.28q-17.34,0-27.86,7.91T26.9,269.21v65.6H2V210.31H26.9V233.7A47.3,47.3,0,0,1,45.4,215.19Z"/><path class="cls-2" d="M180.73,217.58a55.55,55.55,0,0,1,22.72,22.27q8.18,14.55,8.18,34.09,0,19.77-8.18,34.31a55.43,55.43,0,0,1-22.72,22.27A68.7,68.7,0,0,1,148,338.25q-18.18,0-32.6-7.73a56.1,56.1,0,0,1-22.73-22.39q-8.3-14.64-8.29-34.19t8.29-34.09a56.43,56.43,0,0,1,22.73-22.27q14.41-7.71,32.6-7.72A68.81,68.81,0,0,1,180.73,217.58ZM129.6,236.9a33.49,33.49,0,0,0-13.52,14Q111,260.31,111,273.94q0,13.86,5.11,23.18A33.61,33.61,0,0,0,129.6,311a39.58,39.58,0,0,0,36.81,0,33.67,33.67,0,0,0,13.52-13.86q5.12-9.33,5.11-23.18,0-13.63-5.11-23.07a33.55,33.55,0,0,0-13.52-14,39.5,39.5,0,0,0-36.81,0Z"/><path class="cls-2" d="M300.8,313.47v24.9h-16q-20.12,0-30.51-9.66t-10.4-32.15v-64.9H226.1V210.31h17.79v-32h24.9v32h28.45v21.35H268.79v62.68q0,10.85,4.18,15t14.69,4.15Z"/><path class="cls-2" d="M405.36,217.09a44.84,44.84,0,0,1,16.38,22.15V210.31h24.9v124.5h-24.9V305.89A44.8,44.8,0,0,1,405.36,328q-11.58,8.35-27.95,8.36a51.94,51.94,0,0,1-28.07-7.69Q337,321,330,306.57t-7-34.12q0-19.42,7-33.89t19.33-22.15a52.11,52.11,0,0,1,28.07-7.68Q393.79,208.73,405.36,217.09ZM354.44,243.6q-10.33,11-10.34,30.34t10.34,30.33q10.33,11,27.61,11a37.56,37.56,0,0,0,19.54-5.11,36.31,36.31,0,0,0,13.64-14.43q5-9.31,5-21.81a45.68,45.68,0,0,0-5-21.7,36.19,36.19,0,0,0-13.64-14.55,37.66,37.66,0,0,0-19.54-5.11Q364.79,232.58,354.44,243.6Z"/></svg>