<svg id="Layer_1" data-name="Layer 1" xmlns="http://www.w3.org/2000/svg" viewBox="0 0 494.11 406.79"><defs><style>.cls-1{fill:#222735;}.cls-2{fill:#fd809e;}</style></defs><title>logo</title><path class="cls-1" d="M312.05,267.23H242.54q-21.51-.71-57.34-.7-69.49,0-69.51-69.69t69.51-69.7h.13c14.17,0,25.62-10,25.62-22.33V69.07c0-13.54-13.82-24-29.32-22.28C123.37,53.25,91.32,69.3,91.32,69.3Q56.22,81.84,30,116T3.89,196.84q0,74.57,47.3,112.56t125.41,38c21.66,0,91.81-1.24,136.19-2.07,21.08-.39,38-17.12,38-37.63v-2.81C350.75,284.08,333.42,267.23,312.05,267.23Z" transform="translate(-3.89 -46.61)"/><path class="cls-2" d="M189.84,232.77h69.51q21.5.71,57.33.7,69.51,0,69.52,69.69t-69.52,69.7h-.12c-14.17,0-25.63,10.05-25.63,22.33v35.74c0,13.54,13.82,24,29.33,22.28,58.26-6.46,90.31-22.51,90.31-22.51q35.1-12.54,61.27-46.69T498,303.16q0-74.57-47.3-112.56t-125.42-38c-21.66,0-91.8,1.24-136.18,2.07-21.09.39-38,17.12-38,37.63v2.81C151.13,215.92,168.46,232.77,189.84,232.77Z" transform="translate(-3.89 -46.61)"/></svg>