<svg id="Layer_1" data-name="Layer 1" xmlns="http://www.w3.org/2000/svg" viewBox="0 0 450.5 63.96"><defs><style>.cls-1{fill:#222735;}.cls-2{fill:#fd809e;}</style></defs><title>logo-with-text</title><path class="cls-1" d="M100.51,19.3a5.45,5.45,0,0,1,2.41-3.47q4.41,1.06,5.81,5.94,2.74-5.94,8.76-5.94a16.51,16.51,0,0,1,3.47.4,11.28,11.28,0,0,1-1.54,6.08c-.26,0-1.16-.13-2.67-.27q-4.68,0-7.35,5.21v22a19.58,19.58,0,0,1-6.48,0V26.12Q102.92,21.58,100.51,19.3Z"/><path class="cls-1" d="M149.76,34.81H129.91a13.9,13.9,0,0,0,2,7.34c1.2,1.74,3.21,2.61,6,2.61a20.6,20.6,0,0,0,9.29-2.61,7.21,7.21,0,0,1,2.07,4.22,21.32,21.32,0,0,1-12.53,3.74q-7.19,0-10.36-4.81t-3.17-12.53q0-7.73,3.58-12.53a11.75,11.75,0,0,1,10-4.81q6.45,0,9.92,4a15.15,15.15,0,0,1,3.48,10.26A28.25,28.25,0,0,1,149.76,34.81Zm-7.52-12.07a5.76,5.76,0,0,0-5.11-2.5,6,6,0,0,0-5.21,2.57,13.64,13.64,0,0,0-2,7.25h14v-.87A11.21,11.21,0,0,0,142.24,22.74Z"/><path class="cls-1" d="M183,46.37a5.26,5.26,0,0,1-2.54,3.34,6.56,6.56,0,0,1-5.08-4.28q-4.81,4.68-9.82,4.68c-3.35,0-5.87-1-7.59-2.94a10.16,10.16,0,0,1-2.57-6.89q0-5.47,3.51-8.25t9.25-2.77a46.16,46.16,0,0,1,6.62.47V27c0-4.06-1.87-6.08-5.62-6.08a28.74,28.74,0,0,0-10.62,2.6,7,7,0,0,1-1.94-4.81,34,34,0,0,1,13.7-3.07q5.15,0,8,2.8c1.9,1.87,2.84,4.66,2.84,8.36V40.48Q181.16,44.77,183,46.37ZM166.6,44.89q4.47,0,8.22-4.34V34.14a46.55,46.55,0,0,0-6-.34,7.31,7.31,0,0,0-5.14,1.61,5.38,5.38,0,0,0-1.74,4.14,5.73,5.73,0,0,0,1.24,3.94A4.32,4.32,0,0,0,166.6,44.89Z"/><path class="cls-1" d="M199,50.11a9.56,9.56,0,0,1-8.59-4.61q-2.94-4.62-2.94-12.67t3.78-12.56a11.3,11.3,0,0,1,8.92-4.51A15.76,15.76,0,0,1,208,18V.53l.4-.41h2.47a3.28,3.28,0,0,1,2.74,1,5.36,5.36,0,0,1,.74,3.18V39.88q0,4.82,1.87,6.49a5.23,5.23,0,0,1-2.54,3.34,6.37,6.37,0,0,1-4.94-4.21A12.4,12.4,0,0,1,199,50.11Zm1.3-5.42q4.41,0,7.62-4.41V23.51A12.54,12.54,0,0,0,201.11,21,5.87,5.87,0,0,0,196,24.08q-2,3.11-2,9t1.77,8.75A5.2,5.2,0,0,0,200.34,44.69Z"/><path class="cls-1" d="M248.79,16.83l-9,31.34q-2.4,8.36-5.48,12t-9.22,3.65a18.43,18.43,0,0,1-6.14-1v-.6a6.42,6.42,0,0,1,1.4-4.07,14.66,14.66,0,0,0,5.11.8,6,6,0,0,0,4.78-2.14,18.77,18.77,0,0,0,3.14-6.48l.2-.74a6.75,6.75,0,0,1-3.21-.87A4.72,4.72,0,0,1,228.67,46l-8.88-29.27a9.49,9.49,0,0,1,3.87-.93q2.47,0,3.34,2.87l4.68,15.7q.4,1.27,2.61,10a.58.58,0,0,0,.6.47l7.55-28.53a12.16,12.16,0,0,1,2.87-.27,9.86,9.86,0,0,1,3.21.47Z"/><path class="cls-1" d="M250.52,46.77a6.76,6.76,0,0,1,.71-2.48,6,6,0,0,1,1.5-2.07q5.47,3,8.85,3A8.45,8.45,0,0,0,266.63,44a4,4,0,0,0,1.74-3.17q0-3.07-4.35-4.75l-3.74-1.47q-8.55-3.2-8.55-9.42a8.63,8.63,0,0,1,3.3-7.11,13.52,13.52,0,0,1,8.69-2.64,24.88,24.88,0,0,1,10.46,2.33,6.31,6.31,0,0,1-.5,2.68,5.44,5.44,0,0,1-1.44,2.14,22.29,22.29,0,0,0-8.89-2.14,5.79,5.79,0,0,0-3.67,1.1,3.38,3.38,0,0,0-1.4,2.77,3.42,3.42,0,0,0,1,2.64,10.19,10.19,0,0,0,3.31,1.84l4,1.47q8.42,3.27,8.42,10a8.52,8.52,0,0,1-3.51,7.15q-3.51,2.68-9.49,2.68A22.11,22.11,0,0,1,250.52,46.77Z"/><path class="cls-1" d="M306,34.81H286.14a13.81,13.81,0,0,0,2,7.34c1.21,1.74,3.21,2.61,6,2.61a20.6,20.6,0,0,0,9.29-2.61,7.21,7.21,0,0,1,2.07,4.22A21.34,21.34,0,0,1,293,50.11q-7.19,0-10.36-4.81t-3.17-12.53q0-7.73,3.57-12.53a11.78,11.78,0,0,1,10-4.81q6.44,0,9.92,4a15.19,15.19,0,0,1,3.47,10.26A28.23,28.23,0,0,1,306,34.81Zm-7.52-12.07a5.77,5.77,0,0,0-5.11-2.5,6,6,0,0,0-5.22,2.57,13.55,13.55,0,0,0-2,7.25h14v-.87A11.29,11.29,0,0,0,298.47,22.74Z"/><path class="cls-1" d="M329.91,16.23a10.56,10.56,0,0,1,.26,2.44,9.67,9.67,0,0,1-.26,2.37L321.55,21V41.49c0,1.91.92,2.87,2.74,2.87H329a7,7,0,0,1,.54,2.77,16.65,16.65,0,0,1-.07,1.91,61.76,61.76,0,0,1-7.35.47q-6.81,0-6.82-6.55V21L310.4,21a9.65,9.65,0,0,1-.27-2.37,10.55,10.55,0,0,1,.27-2.44l4.87.07V10.21A5.28,5.28,0,0,1,316,7a3.3,3.3,0,0,1,2.74-.94h2.4l.4.4v9.89Z"/><path class="cls-2" d="M332.91,20.57a8.9,8.9,0,0,1,1.21-2.87A8.19,8.19,0,0,1,336,15.43a9.18,9.18,0,0,1,8.15,6q2.53-5.94,8.42-6a17.61,17.61,0,0,1,4.34.54,19.58,19.58,0,0,1-.67,4.64,17.22,17.22,0,0,1-1.8,4.65,13.31,13.31,0,0,0-3.34-.6q-3.54,0-5.75,3.6V49.24a25.06,25.06,0,0,1-4.88.4,28.33,28.33,0,0,1-5.07-.4V27.45Q335.39,22.44,332.91,20.57Z"/><path class="cls-2" d="M385.43,18.83q4.81,4.82,4.82,13.74T385.43,46.3q-3.93,3.95-10.49,3.94T364.45,46.3q-4.8-4.81-4.81-13.73t4.81-13.74Q368.4,15,374.94,15T385.43,18.83ZM370.9,25.05a21.71,21.71,0,0,0-1,7.55,21.45,21.45,0,0,0,1,7.52,4.42,4.42,0,0,0,8.09,0,21.45,21.45,0,0,0,1-7.52,21.71,21.71,0,0,0-1-7.55,4.4,4.4,0,0,0-8.09,0Z"/><path class="cls-2" d="M416,15.89a16.87,16.87,0,0,1,.4,3.55A16.78,16.78,0,0,1,416,23l-8-.14v16c0,2.1,1,3.14,2.94,3.14h3.87a13.65,13.65,0,0,1,.81,4.28,9.23,9.23,0,0,1-.27,2.67,63.88,63.88,0,0,1-8.82.67q-8.22,0-8.22-9V22.91l-5.21.07a13.49,13.49,0,0,1-.4-3.54,13.57,13.57,0,0,1,.4-3.55l5.21.07V11.89q0-3.35,1.2-4.68c.8-.89,2.18-1.34,4.15-1.34h3.87l.47.47V16Z"/><path class="cls-2" d="M450.25,44.63A8.6,8.6,0,0,1,449,47.5a8.78,8.78,0,0,1-1.9,2.27,8.39,8.39,0,0,1-6.95-3.54,13.54,13.54,0,0,1-9.46,4q-5.18,0-7.81-3.07a10.47,10.47,0,0,1-2.64-7q0-5.68,3.77-8.62a14.83,14.83,0,0,1,9.39-2.94c1.47,0,3.14.07,5,.2V27.32q0-4.41-4.54-4.41-2.88,0-10,2.14c-1.33-1.56-2.14-3.88-2.4-6.95A36.07,36.07,0,0,1,429,16a42.71,42.71,0,0,1,7.65-.8A12.75,12.75,0,0,1,445,17.93q3.38,2.78,3.38,8.59V40.15Q448.38,43.3,450.25,44.63Zm-17-1.81a8.06,8.06,0,0,0,5.21-2.2V35.07c-1,0-2.31-.07-4-.07-3,0-4.47,1.5-4.47,4.48a3.33,3.33,0,0,0,.9,2.37A3.07,3.07,0,0,0,433.21,42.82Z"/><path class="cls-1" d="M48.67,34.7H37.74c-2.25-.08-5.26-.11-9-.11q-10.93,0-10.93-11t10.93-11h0a3.81,3.81,0,0,0,4-3.51V3.54c0-2.13-2.18-3.77-4.61-3.5C19,1.06,14,3.58,14,3.58a21.07,21.07,0,0,0-9.64,7.34A20.31,20.31,0,0,0,.22,23.63q0,11.73,7.44,17.7t19.72,6c3.4,0,14.43-.2,21.41-.33a6,6,0,0,0,6-5.91v-.45A6,6,0,0,0,48.67,34.7Z"/><path class="cls-2" d="M29.46,29.28H40.38c2.26.07,5.26.11,9,.11q10.92,0,10.93,11T49.4,51.3h0a3.8,3.8,0,0,0-4,3.51v5.62c0,2.13,2.17,3.78,4.61,3.51,9.16-1,14.2-3.54,14.2-3.54a21.06,21.06,0,0,0,9.63-7.34A20.31,20.31,0,0,0,77.9,40.35q0-11.73-7.43-17.7t-19.72-6c-3.4,0-14.43.19-21.41.32a6,6,0,0,0-6,5.92v.44A6,6,0,0,0,29.46,29.28Z"/></svg>