<?xml version="1.0" encoding="utf-8"?>
<!-- Generator: Adobe Illustrator 23.0.1, SVG Export Plug-In . SVG Version: 6.00 Build 0)  -->
<svg version="1.1" id="Layer_1" xmlns="http://www.w3.org/2000/svg" xmlns:xlink="http://www.w3.org/1999/xlink" x="0px" y="0px"
	 viewBox="0 0 500 500" style="enable-background:new 0 0 500 500;" xml:space="preserve">
<style type="text/css">
	.st0{fill:#F65058;}
	.st1{fill:#FFFFFF;}
	.st2{fill:none;}
</style>
<g>
	<g>
		<path class="st0" d="M391.6,333.2c-6.5,11.6-16.3,21.1-29.6,28.3c-13.2,7.3-29.6,10.9-49,10.9c-18.9,0-35.7-3.4-50.4-10.3
			c-14.7-6.9-26.5-16.3-35.2-28.4c-8.8-12-13.8-25.7-15.2-41.1h39.3c0.8,8.1,3.6,16,8.3,23.7c4.7,7.7,11.5,14,20.3,19
			c8.8,5,19.4,7.5,31.8,7.5c16.2,0,28.6-4.3,37.3-13c8.6-8.6,13-19.7,13-33.2c0-11.6-3-21.1-9.1-28.3c-6.1-7.3-13.6-13-22.5-17.2
			c-8.9-4.2-21.1-8.7-36.4-13.6c-18.1-5.9-32.6-11.5-43.5-16.8c-10.9-5.3-20.3-13.2-27.9-23.7c-7.7-10.5-11.5-24.4-11.5-41.7
			c0-14.8,3.6-27.9,10.7-39.3c7.2-11.3,17.4-20.1,30.8-26.3c13.4-6.2,29.1-9.3,47.2-9.3c28.1,0,50.4,6.8,66.8,20.5
			c16.5,13.6,26,31,28.8,52h-39.7c-2.2-11.3-8-21.3-17.4-30c-9.5-8.6-22.3-13-38.5-13c-14.8,0-26.7,3.8-35.6,11.5
			c-8.9,7.7-13.4,18.6-13.4,32.6c0,11.1,2.9,20,8.7,26.9c5.8,6.9,13,12.3,21.7,16.2c8.6,3.9,20.5,8.3,35.6,13.2
			c18.4,5.9,33.1,11.6,44.3,17c11.2,5.4,20.7,13.6,28.6,24.5c7.8,10.9,11.7,25.5,11.7,43.5C401.4,309.1,398.1,321.6,391.6,333.2z"/>
	</g>
	<path class="st1" d="M175.6,216.6l38.4-1.3l0.1,0.1l-0.1-0.1c24.6-3.5,43.3-12.4,56.3-26.5c13-14.2,19.4-32.9,19.4-56.1
		c0-25.6-8.1-46.2-24.3-61.8c-16.2-15.5-40.5-23.3-72.9-23.3h-94v285.5h36.9V216.6L175.6,216.6L175.6,216.6z M135.5,79.7h53.9
		c41.9,0,62.8,18.4,62.8,55.1c0,36.7-20.9,55.1-62.8,55.1h-53.9V79.7z"/>
	<g>
		<path class="st1" d="M121.6,253.3c8.8-7,20.1-10.6,34.3-10.6c16.2,0,29,4.3,38.5,13c9.4,8.6,15.2,18.6,17.4,30h39.7
			c-2.7-21.1-12.3-38.4-28.8-52c-16.5-13.6-38.7-20.5-66.8-20.5c-10.8,0-20.7,1.3-29.8,3.5C124.8,228.6,122.3,241.1,121.6,253.3z"/>
	</g>
	<g>
		<path class="st2" d="M264.1,121.6c-7.2,6.2-11.5,14.5-12.9,24.8h50.6v-36.4c-0.7,0-1.4,0-2.1,0C284.9,110.1,273,113.9,264.1,121.6
			z"/>
		<path class="st2" d="M252.5,89.8c13.4-6.2,29.1-9.3,47.2-9.3c0.7,0,1.4,0,2.1,0V65.8h-70.2v38.1C237.5,98.3,244.4,93.6,252.5,89.8
			z"/>
		<path class="st0" d="M252.5,89.8c-8.1,3.8-15,8.5-20.8,14.1v42.5h19.5c1.4-10.3,5.7-18.6,12.9-24.8c8.9-7.7,20.8-11.5,35.6-11.5
			c0.7,0,1.4,0,2.1,0V80.5c-0.7,0-1.4,0-2.1,0C281.6,80.5,265.9,83.6,252.5,89.8z"/>
	</g>
</g>
<g>
	<path class="st1" d="M66.2,408.1c1.9-1.2,4.3-1.8,7-1.8v5.6h-1.6c-2.9,0-5.2,0.7-7.1,2.2c-1.8,1.5-2.8,3.9-2.8,7.3v16.3h-5.1v-30.9
		h5.1v6.2C62.8,410.9,64.3,409.3,66.2,408.1z"/>
	<path class="st1" d="M106.5,423.4H81.8c0.1,3.5,1.1,6.2,3,7.9c1.9,1.8,4.2,2.6,6.9,2.6c2.5,0,4.5-0.6,6.2-1.9
		c1.7-1.3,2.7-2.9,3.1-5h5.5c-0.4,2.1-1.2,4-2.5,5.7c-1.3,1.7-3,3-5,3.9c-2.1,0.9-4.4,1.4-7,1.4c-3,0-5.6-0.6-7.9-1.9
		c-2.3-1.3-4.1-3.1-5.4-5.5c-1.3-2.4-1.9-5.2-1.9-8.4c0-3.2,0.6-6,1.9-8.4c1.3-2.4,3.1-4.2,5.4-5.5c2.3-1.3,4.9-1.9,7.9-1.9
		c3,0,5.6,0.6,7.8,1.9c2.2,1.3,3.9,3,5.1,5.1c1.2,2.1,1.8,4.5,1.8,7.1C106.7,421.6,106.6,422.6,106.5,423.4z M100.4,415.2
		c-0.9-1.5-2-2.7-3.5-3.4c-1.5-0.8-3.1-1.1-4.9-1.1c-2.8,0-5.2,0.9-7.1,2.6s-2.9,4.3-3.1,7.7h19.7
		C101.6,418.6,101.2,416.7,100.4,415.2z"/>
	<path class="st1" d="M133.6,408.7c2.1,1.5,3.5,3.5,4.4,6v-7.9h5.1v30.9H138v-7.9c-0.8,2.5-2.3,4.5-4.4,6c-2.1,1.5-4.6,2.2-7.6,2.2
		c-2.7,0-5.2-0.6-7.3-1.9c-2.1-1.3-3.8-3.1-5-5.5c-1.2-2.4-1.8-5.2-1.8-8.4c0-3.2,0.6-6,1.8-8.4c1.2-2.4,2.9-4.2,5-5.5
		c2.1-1.3,4.6-1.9,7.3-1.9C129,406.4,131.6,407.2,133.6,408.7z M119.9,414c-1.9,2-2.8,4.8-2.8,8.3c0,3.5,0.9,6.3,2.8,8.3
		c1.9,2,4.4,3,7.6,3c2,0,3.8-0.5,5.4-1.4c1.6-0.9,2.8-2.3,3.7-4c0.9-1.7,1.3-3.7,1.3-5.9c0-2.2-0.5-4.2-1.3-6c-0.9-1.7-2.1-3-3.7-4
		c-1.6-0.9-3.4-1.4-5.4-1.4C124.3,411,121.8,412,119.9,414z"/>
	<path class="st1" d="M171.6,408.7c2.1,1.5,3.5,3.5,4.4,6v-18.6h5.1v41.6h-5.1v-7.9c-0.8,2.5-2.3,4.5-4.4,6
		c-2.1,1.5-4.6,2.2-7.6,2.2c-2.7,0-5.2-0.6-7.3-1.9c-2.1-1.3-3.8-3.1-5-5.5c-1.2-2.4-1.8-5.2-1.8-8.4c0-3.2,0.6-6,1.8-8.4
		c1.2-2.4,2.9-4.2,5-5.5c2.1-1.3,4.6-1.9,7.3-1.9C166.9,406.4,169.5,407.2,171.6,408.7z M157.8,414c-1.9,2-2.8,4.8-2.8,8.3
		c0,3.5,0.9,6.3,2.8,8.3c1.9,2,4.4,3,7.6,3c2,0,3.8-0.5,5.4-1.4c1.6-0.9,2.8-2.3,3.7-4c0.9-1.7,1.3-3.7,1.3-5.9c0-2.2-0.5-4.2-1.3-6
		c-0.9-1.7-2.1-3-3.7-4c-1.6-0.9-3.4-1.4-5.4-1.4C162.2,411,159.7,412,157.8,414z"/>
	<path class="st1" d="M191.3,406.8l10,24.3l9.3-24.3h5.7L198,452.3h-5.8l6.4-15.1l-13-30.4H191.3z"/>
	<path class="st1" d="M239,409.2c2.1,1.8,3.4,4.3,3.9,7.3H238c-0.2-1.8-1-3.3-2.3-4.5c-1.3-1.2-3-1.8-5.2-1.8
		c-1.8,0-3.3,0.4-4.3,1.3c-1,0.9-1.5,2.1-1.5,3.6c0,1.1,0.3,2,1,2.7c0.7,0.7,1.6,1.2,2.6,1.6c1,0.4,2.4,0.7,4.2,1.2
		c2.3,0.5,4.1,1.1,5.5,1.6c1.4,0.5,2.6,1.4,3.6,2.6c1,1.2,1.5,2.8,1.5,4.8c0,2.5-0.9,4.6-2.8,6.1c-1.9,1.6-4.4,2.4-7.6,2.4
		c-3.7,0-6.7-0.9-9-2.6c-2.3-1.8-3.7-4.2-4.1-7.4h4.9c0.2,1.9,1,3.4,2.4,4.6c1.4,1.2,3.3,1.7,5.7,1.7c1.8,0,3.1-0.4,4.1-1.3
		c1-0.9,1.5-2.1,1.5-3.5c0-1.2-0.4-2.2-1.1-2.9c-0.7-0.7-1.6-1.3-2.6-1.6c-1-0.4-2.5-0.8-4.3-1.2c-2.3-0.5-4.1-1-5.5-1.6
		c-1.4-0.5-2.5-1.4-3.5-2.5c-1-1.1-1.4-2.7-1.4-4.6c0-2.6,1-4.7,2.9-6.3c1.9-1.6,4.5-2.4,7.8-2.4C234.1,406.4,236.9,407.3,239,409.2
		z"/>
	<path class="st1" d="M278.2,423.4h-24.7c0.1,3.5,1.1,6.2,3,7.9c1.9,1.8,4.2,2.6,6.9,2.6c2.5,0,4.5-0.6,6.2-1.9s2.7-2.9,3.1-5h5.5
		c-0.4,2.1-1.2,4-2.5,5.7c-1.3,1.7-3,3-5,3.9c-2.1,0.9-4.4,1.4-7,1.4c-3,0-5.6-0.6-7.9-1.9c-2.3-1.3-4.1-3.1-5.4-5.5
		c-1.3-2.4-1.9-5.2-1.9-8.4c0-3.2,0.6-6,1.9-8.4c1.3-2.4,3.1-4.2,5.4-5.5s4.9-1.9,7.9-1.9c3,0,5.6,0.6,7.8,1.9s3.9,3,5.1,5.1
		c1.2,2.1,1.8,4.5,1.8,7.1C278.4,421.6,278.4,422.6,278.2,423.4z M272.1,415.2c-0.9-1.5-2-2.7-3.5-3.4c-1.5-0.8-3.1-1.1-4.9-1.1
		c-2.8,0-5.2,0.9-7.1,2.6c-1.9,1.7-2.9,4.3-3.1,7.7h19.7C273.4,418.6,273,416.7,272.1,415.2z"/>
	<path class="st1" d="M299.9,433.2v4.5H296c-3.2,0-5.5-0.8-7.1-2.2c-1.6-1.5-2.3-4-2.3-7.5v-16.6H282v-4.4h4.6v-7.7h5.2v7.7h8v4.4
		h-8V428c0,2,0.4,3.3,1.1,4.1c0.7,0.7,2,1.1,3.8,1.1H299.9z"/>
	<path class="st0" d="M329.7,409.3c2.7,2.2,4.5,5.3,5.2,9.2h-10.2c-0.3-1.3-0.9-2.4-1.9-3.1c-0.9-0.7-2.1-1.1-3.5-1.1
		c-1.7,0-3.1,0.7-4.2,2c-1.1,1.3-1.6,3.3-1.6,5.8c0,2.5,0.5,4.5,1.6,5.8s2.5,2,4.2,2c1.4,0,2.6-0.4,3.5-1.1c0.9-0.7,1.6-1.8,1.9-3.1
		h10.2c-0.7,3.9-2.4,7-5.2,9.2c-2.7,2.2-6.1,3.3-10.2,3.3c-3.1,0-5.8-0.6-8.2-1.9c-2.4-1.3-4.2-3.2-5.6-5.6c-1.3-2.4-2-5.3-2-8.5
		c0-3.3,0.7-6.2,2-8.6c1.3-2.4,3.2-4.3,5.6-5.6c2.4-1.3,5.1-1.9,8.2-1.9C323.5,405.9,326.9,407,329.7,409.3z"/>
	<path class="st0" d="M362.9,407.9c2.5,1.3,4.4,3.2,5.8,5.6c1.4,2.4,2.1,5.3,2.1,8.5s-0.7,6.1-2.1,8.5c-1.4,2.4-3.3,4.3-5.8,5.6
		c-2.5,1.3-5.2,1.9-8.4,1.9s-5.9-0.6-8.4-1.9c-2.5-1.3-4.4-3.2-5.8-5.6c-1.4-2.4-2.1-5.3-2.1-8.5s0.7-6.1,2.1-8.5
		c1.4-2.4,3.3-4.3,5.8-5.6c2.5-1.3,5.3-1.9,8.4-1.9S360.4,406.6,362.9,407.9z M349.9,416.2c-1.3,1.3-1.9,3.3-1.9,5.8
		c0,2.5,0.6,4.4,1.9,5.7c1.3,1.3,2.8,2,4.6,2c1.8,0,3.4-0.7,4.6-2c1.2-1.3,1.9-3.2,1.9-5.7c0-2.5-0.6-4.4-1.9-5.8
		c-1.2-1.3-2.8-2-4.6-2C352.7,414.2,351.1,414.9,349.9,416.2z"/>
	<path class="st0" d="M390,407.7c1.9-1.1,3.9-1.7,6.2-1.7v10.3h-2.8c-2.6,0-4.5,0.5-5.9,1.6c-1.4,1.1-2.1,2.9-2.1,5.5v14.3h-9.6
		v-31.4h9.6v5.9C386.6,410.3,388.1,408.8,390,407.7z"/>
	<path class="st0" d="M429.8,423.8H408c0.1,2.4,0.7,4.1,1.8,5.1c1.1,1,2.5,1.5,4.2,1.5c1.4,0,2.6-0.4,3.5-1.1s1.6-1.6,1.9-2.8h10.2
		c-0.4,2.2-1.3,4.2-2.7,5.9c-1.4,1.7-3.2,3.1-5.3,4.1c-2.1,1-4.5,1.5-7.1,1.5c-3.1,0-5.8-0.6-8.2-1.9c-2.4-1.3-4.2-3.2-5.6-5.6
		c-1.3-2.4-2-5.3-2-8.5c0-3.3,0.7-6.2,2-8.6c1.3-2.4,3.2-4.3,5.6-5.6c2.4-1.3,5.1-1.9,8.2-1.9c3.1,0,5.8,0.6,8.2,1.9
		c2.4,1.3,4.2,3.1,5.5,5.4c1.3,2.3,1.9,5,1.9,8C430,422,429.9,422.8,429.8,423.8z M418.7,415.1c-1.1-1-2.6-1.5-4.2-1.5
		c-1.8,0-3.2,0.5-4.4,1.6c-1.2,1-1.8,2.6-2,4.6h12.3C420.3,417.6,419.8,416.1,418.7,415.1z"/>
	<path class="st0" d="M443.3,428.1v9.6h-10v-9.6H443.3z"/>
</g>
</svg>
