<?xml version="1.0" encoding="utf-8"?>
<!-- Generator: Adobe Illustrator 23.0.1, SVG Export Plug-In . SVG Version: 6.00 Build 0)  -->
<svg version="1.1" id="Layer_1" xmlns="http://www.w3.org/2000/svg" xmlns:xlink="http://www.w3.org/1999/xlink" x="0px" y="0px"
	 viewBox="0 0 503 215.1" style="enable-background:new 0 0 503 215.1;" xml:space="preserve">
<style type="text/css">
	.st0{fill:#FFFFFF;}
	.st1{fill:#EC70C9;}
	.st2{fill:#222735;}
	.st3{display:none;fill:#EE6DE7;}
	.st4{font-family:'Poppins-Regular';}
	.st5{font-size:30.9767px;}
	.st6{display:none;fill:#FF7332;}
</style>
<rect class="st0" width="503" height="209.8"/>
<polygon class="st0" points="4.5,87.3 9.1,85 0,85 "/>
<polygon class="st1" points="495,161.4 486,157 0,157 0,215.1 503,215.1 503,157.5 "/>
<polygon class="st1" points="16.2,58 8,64.7 0,58.3 0,215.1 212,215.1 212,58 "/>
<rect x="8" y="8.1" class="st2" width="487" height="198.9"/>
<text transform="matrix(1 0 0 1 20.3049 209.1323)" class="st3 st4 st5">rota</text>
<text transform="matrix(1 0 0 1 20.3051 234.4101)" class="st6 st4 st5">reserve</text>
<g>
	<path class="st0" d="M75.2,63.8c3.1-1.9,6.7-2.8,11-2.8v8.8h-2.5c-4.5,0-8.3,1.2-11.2,3.5c-2.9,2.3-4.3,6.2-4.3,11.6v25.6h-8.1
		V61.8h8.1v9.8C69.8,68.3,72.1,65.7,75.2,63.8z"/>
	<path class="st0" d="M138.5,87.9H99.6c0.2,5.5,1.8,9.7,4.7,12.5c3,2.8,6.6,4.2,10.9,4.2c3.9,0,7.2-1,9.8-3c2.6-2,4.2-4.6,4.8-7.9
		h8.6c-0.6,3.4-1.9,6.4-3.9,9c-2,2.7-4.7,4.7-7.9,6.2c-3.2,1.5-6.9,2.2-11,2.2c-4.7,0-8.8-1-12.4-3c-3.6-2-6.4-4.9-8.5-8.6
		c-2-3.7-3.1-8.2-3.1-13.2c0-5.1,1-9.5,3.1-13.3c2-3.8,4.9-6.7,8.5-8.7c3.6-2,7.7-3,12.4-3c4.7,0,8.8,1,12.4,3
		c3.5,2,6.2,4.7,8.1,8.1c1.9,3.4,2.8,7.1,2.8,11.2C138.9,85.1,138.7,86.6,138.5,87.9z M128.9,74.9c-1.4-2.4-3.2-4.2-5.6-5.4
		c-2.4-1.2-4.9-1.8-7.7-1.8c-4.4,0-8.1,1.4-11.2,4.1s-4.6,6.8-4.9,12.1h31.1C130.9,80.4,130.3,77.3,128.9,74.9z"/>
	<path class="st0" d="M181.3,64.7c3.3,2.4,5.6,5.5,6.9,9.5V61.8h8.1v48.6h-8.1V98c-1.3,4-3.6,7.1-6.9,9.5c-3.3,2.4-7.3,3.5-12,3.5
		c-4.3,0-8.1-1-11.5-3c-3.4-2-6-4.9-7.9-8.6c-1.9-3.7-2.9-8.2-2.9-13.2c0-5.1,1-9.5,2.9-13.3c1.9-3.8,4.6-6.7,7.9-8.7
		c3.4-2,7.2-3,11.5-3C174,61.2,178,62.4,181.3,64.7z M159.7,73.1c-3,3.2-4.5,7.5-4.5,13.1c0,5.5,1.5,9.9,4.5,13.1
		c3,3.2,7,4.7,11.9,4.7c3.2,0,6-0.7,8.5-2.2c2.5-1.5,4.5-3.6,5.9-6.2c1.4-2.7,2.1-5.8,2.1-9.3c0-3.5-0.7-6.7-2.1-9.4
		c-1.4-2.7-3.4-4.8-5.9-6.2c-2.5-1.4-5.4-2.2-8.5-2.2C166.7,68.4,162.7,69.9,159.7,73.1z"/>
	<path class="st0" d="M241,64.7c3.3,2.4,5.6,5.5,6.9,9.5V44.9h8.1v65.5h-8.1V98c-1.3,4-3.6,7.1-6.9,9.5c-3.3,2.4-7.3,3.5-12,3.5
		c-4.3,0-8.1-1-11.5-3c-3.4-2-6-4.9-7.9-8.6c-1.9-3.7-2.9-8.2-2.9-13.2c0-5.1,1-9.5,2.9-13.3c1.9-3.8,4.6-6.7,7.9-8.7
		c3.4-2,7.2-3,11.5-3C233.7,61.2,237.7,62.4,241,64.7z M219.4,73.1c-3,3.2-4.5,7.5-4.5,13.1c0,5.5,1.5,9.9,4.5,13.1
		c3,3.2,7,4.7,11.9,4.7c3.2,0,6-0.7,8.5-2.2c2.5-1.5,4.5-3.6,5.9-6.2c1.4-2.7,2.1-5.8,2.1-9.3c0-3.5-0.7-6.7-2.1-9.4
		c-1.4-2.7-3.4-4.8-5.9-6.2c-2.5-1.4-5.4-2.2-8.5-2.2C226.3,68.4,222.4,69.9,219.4,73.1z"/>
	<path class="st0" d="M272.1,61.8l15.8,38.3l14.6-38.3h8.9l-28.9,71.6h-9.1l10.1-23.8l-20.5-47.8H272.1z"/>
	<path class="st0" d="M347.3,65.5c3.3,2.9,5.4,6.7,6.1,11.6h-7.7c-0.4-2.9-1.5-5.3-3.6-7.1s-4.8-2.8-8.2-2.8c-2.9,0-5.2,0.7-6.8,2.1
		c-1.6,1.4-2.4,3.3-2.4,5.6c0,1.8,0.5,3.2,1.6,4.3c1.1,1.1,2.4,1.9,4.1,2.5c1.6,0.6,3.9,1.2,6.7,1.8c3.6,0.8,6.5,1.7,8.7,2.5
		c2.2,0.9,4.1,2.2,5.7,4.1c1.6,1.9,2.3,4.4,2.3,7.6c0,4-1.5,7.2-4.5,9.7c-3,2.5-7,3.7-11.9,3.7c-5.8,0-10.5-1.4-14.2-4.2
		c-3.7-2.8-5.8-6.6-6.5-11.6h7.8c0.3,3,1.6,5.3,3.9,7.2c2.3,1.8,5.3,2.7,9,2.7c2.8,0,4.9-0.7,6.5-2.1c1.6-1.4,2.3-3.3,2.3-5.6
		c0-1.9-0.6-3.4-1.7-4.5c-1.1-1.1-2.5-2-4.2-2.6c-1.7-0.6-3.9-1.2-6.8-1.9c-3.6-0.8-6.5-1.7-8.6-2.5c-2.2-0.8-4-2.1-5.5-3.9
		c-1.5-1.8-2.3-4.2-2.3-7.3c0-4.1,1.5-7.4,4.5-9.9c3-2.5,7.1-3.8,12.3-3.8C339.5,61.2,343.9,62.6,347.3,65.5z"/>
	<path class="st0" d="M408.9,87.9h-38.9c0.2,5.5,1.8,9.7,4.7,12.5c3,2.8,6.6,4.2,10.9,4.2c3.9,0,7.2-1,9.8-3c2.6-2,4.2-4.6,4.8-7.9
		h8.6c-0.6,3.4-1.9,6.4-3.9,9c-2,2.7-4.7,4.7-7.9,6.2c-3.2,1.5-6.9,2.2-11,2.2c-4.7,0-8.8-1-12.4-3c-3.6-2-6.4-4.9-8.5-8.6
		c-2-3.7-3.1-8.2-3.1-13.2c0-5.1,1-9.5,3.1-13.3c2-3.8,4.9-6.7,8.5-8.7c3.6-2,7.7-3,12.4-3c4.7,0,8.8,1,12.4,3
		c3.5,2,6.2,4.7,8.1,8.1c1.9,3.4,2.8,7.1,2.8,11.2C409.3,85.1,409.2,86.6,408.9,87.9z M399.4,74.9c-1.4-2.4-3.2-4.2-5.6-5.4
		c-2.4-1.2-4.9-1.8-7.7-1.8c-4.4,0-8.1,1.4-11.2,4.1c-3,2.7-4.6,6.8-4.9,12.1h31.1C401.3,80.4,400.7,77.3,399.4,74.9z"/>
	<path class="st0" d="M443,103.3v7.1h-6c-5,0-8.7-1.2-11.1-3.5c-2.5-2.4-3.7-6.3-3.7-11.9V68.8H415v-7h7.3V49.7h8.1v12.1h12.6v7
		h-12.6v26.4c0,3.1,0.6,5.3,1.7,6.4s3.1,1.7,6,1.7H443z"/>
	<path class="st1" d="M79.6,128.3c2.6-1.5,5.4-2.3,8.5-2.3v14.2h-3.8c-3.5,0-6.2,0.7-8.2,2.2c-1.9,1.5-2.9,4-2.9,7.6v19.6H59.9
		v-43.2h13.2v8.1C74.8,132,76.9,129.9,79.6,128.3z"/>
	<path class="st1" d="M125.3,128.6c3.4,1.8,6,4.3,8,7.7c1.9,3.4,2.9,7.3,2.9,11.8s-1,8.4-2.9,11.8c-1.9,3.4-4.6,5.9-8,7.7
		c-3.4,1.8-7.2,2.7-11.5,2.7c-4.3,0-8.1-0.9-11.5-2.7c-3.4-1.8-6.1-4.3-8-7.7c-1.9-3.4-2.9-7.3-2.9-11.8s1-8.4,2.9-11.8
		c1.9-3.4,4.6-5.9,8-7.7c3.4-1.8,7.2-2.7,11.5-2.7C118.1,125.9,121.9,126.8,125.3,128.6z M107.4,140.1c-1.7,1.8-2.6,4.5-2.6,7.9
		c0,3.5,0.9,6.1,2.6,7.9c1.7,1.8,3.9,2.7,6.4,2.7c2.5,0,4.6-0.9,6.3-2.7c1.7-1.8,2.6-4.4,2.6-7.9c0-3.5-0.9-6.1-2.6-7.9
		c-1.7-1.8-3.8-2.7-6.3-2.7C111.3,137.4,109.1,138.3,107.4,140.1z"/>
	<path class="st1" d="M167.5,158.3v11.4h-6c-5.1,0-9-1.2-11.8-3.8c-2.8-2.5-4.2-6.6-4.2-12.4v-15.9h-5.8v-11.1h5.8v-10.6h13.2v10.6
		h8.7v11.1h-8.7v16.1c0,1.7,0.3,2.9,1,3.6c0.7,0.7,1.9,1,3.5,1H167.5z"/>
	<path class="st1" d="M199.8,128.2c2.4,1.5,4.1,3.5,5.3,6.1v-7.8h13.2v43.2h-13.2v-7.8c-1.1,2.6-2.9,4.6-5.3,6.1
		c-2.4,1.5-5.2,2.2-8.5,2.2c-3.6,0-6.7-0.9-9.6-2.7c-2.8-1.8-5-4.3-6.7-7.7c-1.6-3.4-2.4-7.3-2.4-11.8c0-4.5,0.8-8.5,2.4-11.8
		c1.6-3.3,3.8-5.9,6.7-7.7c2.8-1.8,6-2.7,9.6-2.7C194.6,125.9,197.4,126.7,199.8,128.2z M188.7,140.3c-1.7,1.9-2.6,4.4-2.6,7.7
		c0,3.3,0.9,5.9,2.6,7.7c1.7,1.9,4,2.8,6.8,2.8c2.8,0,5.1-1,6.8-2.9c1.8-1.9,2.7-4.5,2.7-7.7c0-3.2-0.9-5.8-2.7-7.7
		c-1.8-1.9-4.1-2.8-6.8-2.8C192.7,137.5,190.4,138.4,188.7,140.3z"/>
	<path class="st1" d="M238.7,156.4v13.2H225v-13.2H238.7z"/>
</g>
</svg>
