<svg id="Layer_1" data-name="Layer 1" xmlns="http://www.w3.org/2000/svg" viewBox="0 0 121.12 25.56"><defs><style>.cls-1{fill:#222735;}.cls-2{fill:#fd809e;}</style></defs><title>readyset-logo-full</title><path class="cls-1" d="M36.59,9.79A1.32,1.32,0,0,1,37.16,9a1.82,1.82,0,0,1,1.37,1.4A2.16,2.16,0,0,1,40.6,9a4.11,4.11,0,0,1,.82.09,2.7,2.7,0,0,1-.36,1.44l-.63-.07a1.92,1.92,0,0,0-1.74,1.24v5.19a3.68,3.68,0,0,1-.76.06,3.79,3.79,0,0,1-.77-.06V11.4A2.11,2.11,0,0,0,36.59,9.79Z"/><path class="cls-1" d="M48.5,13.45H43.82a3.27,3.27,0,0,0,.47,1.73,1.62,1.62,0,0,0,1.42.62,4.88,4.88,0,0,0,2.19-.62,1.67,1.67,0,0,1,.49,1,5,5,0,0,1-3,.88A2.71,2.71,0,0,1,43,15.92,5.25,5.25,0,0,1,42.24,13a4.85,4.85,0,0,1,.84-3,2.8,2.8,0,0,1,2.37-1.14,2.89,2.89,0,0,1,2.34,1,3.55,3.55,0,0,1,.82,2.42A6.09,6.09,0,0,1,48.5,13.45ZM46.73,10.6A1.37,1.37,0,0,0,45.52,10a1.41,1.41,0,0,0-1.23.61,3.19,3.19,0,0,0-.47,1.71h3.31v-.21A2.62,2.62,0,0,0,46.73,10.6Z"/><path class="cls-1" d="M56.64,16.18A1.2,1.2,0,0,1,56,17a1.57,1.57,0,0,1-1.19-1,3.37,3.37,0,0,1-2.32,1.1,2.25,2.25,0,0,1-1.79-.69,2.39,2.39,0,0,1-.61-1.63,2.32,2.32,0,0,1,.83-2,3.45,3.45,0,0,1,2.18-.65,11.23,11.23,0,0,1,1.56.11V11.6c0-.95-.44-1.43-1.32-1.43a6.77,6.77,0,0,0-2.51.61,1.64,1.64,0,0,1-.46-1.13,8,8,0,0,1,3.24-.73,2.56,2.56,0,0,1,1.88.66,2.64,2.64,0,0,1,.67,2v3.24A1.81,1.81,0,0,0,56.64,16.18Zm-3.88-.35a2.53,2.53,0,0,0,1.94-1V13.29a11.74,11.74,0,0,0-1.42-.08,1.74,1.74,0,0,0-1.21.38,1.28,1.28,0,0,0-.41,1,1.38,1.38,0,0,0,.29.93A1,1,0,0,0,52.76,15.83Z"/><path class="cls-1" d="M60.71,17.06a2.25,2.25,0,0,1-2-1.09,5.53,5.53,0,0,1-.7-3,4.45,4.45,0,0,1,.9-3A2.66,2.66,0,0,1,61,9a3.69,3.69,0,0,1,1.83.54V5.36l.1-.1h.58a.78.78,0,0,1,.65.23,1.3,1.3,0,0,1,.17.75v8.41a2.05,2.05,0,0,0,.44,1.53,1.2,1.2,0,0,1-.6.79A1.51,1.51,0,0,1,63,16,2.93,2.93,0,0,1,60.71,17.06Zm.3-1.28a2.17,2.17,0,0,0,1.8-1v-4a3,3,0,0,0-1.61-.6,1.39,1.39,0,0,0-1.2.74A3.94,3.94,0,0,0,59.53,13,4,4,0,0,0,60,15.1,1.21,1.21,0,0,0,61,15.78Z"/><path class="cls-1" d="M72.73,9.2l-2.11,7.4a7.91,7.91,0,0,1-1.29,2.83,2.68,2.68,0,0,1-2.18.87,4.33,4.33,0,0,1-1.45-.24v-.14A1.56,1.56,0,0,1,66,19a3.38,3.38,0,0,0,1.21.19,1.43,1.43,0,0,0,1.13-.5,4.54,4.54,0,0,0,.74-1.53l0-.18a1.52,1.52,0,0,1-.75-.2A1.11,1.11,0,0,1,68,16.1l-2.1-6.91A2.16,2.16,0,0,1,66.8,9a.79.79,0,0,1,.79.68l1.11,3.7c.06.2.27,1,.61,2.35a.13.13,0,0,0,.14.11l1.79-6.73A2.94,2.94,0,0,1,71.91,9a2.21,2.21,0,0,1,.76.11Z"/><path class="cls-1" d="M73.43,16.27a1.4,1.4,0,0,1,.17-.58A1.31,1.31,0,0,1,74,15.2a4.74,4.74,0,0,0,2.09.71,2,2,0,0,0,1.19-.29,1,1,0,0,0,.41-.75c0-.49-.34-.86-1-1.12l-.89-.35c-1.34-.5-2-1.25-2-2.22a2,2,0,0,1,.78-1.68,3.2,3.2,0,0,1,2.06-.63A5.81,5.81,0,0,1,79,9.43a1.61,1.61,0,0,1-.11.63,1.29,1.29,0,0,1-.34.5,5.23,5.23,0,0,0-2.1-.5,1.33,1.33,0,0,0-.87.26.79.79,0,0,0-.33.65.81.81,0,0,0,.24.62,2.51,2.51,0,0,0,.78.44l1,.35c1.33.51,2,1.3,2,2.36a2,2,0,0,1-.83,1.69,3.61,3.61,0,0,1-2.24.63A5.16,5.16,0,0,1,73.43,16.27Z"/><path class="cls-1" d="M86.81,13.45H82.12a3.18,3.18,0,0,0,.48,1.73A1.59,1.59,0,0,0,84,15.8a4.88,4.88,0,0,0,2.19-.62,1.79,1.79,0,0,1,.49,1,5,5,0,0,1-3,.88,2.72,2.72,0,0,1-2.45-1.14A5.25,5.25,0,0,1,80.54,13a4.86,4.86,0,0,1,.85-3,2.77,2.77,0,0,1,2.36-1.14,2.93,2.93,0,0,1,2.35,1,3.6,3.6,0,0,1,.82,2.42A7,7,0,0,1,86.81,13.45ZM85,10.6a1.37,1.37,0,0,0-1.2-.59,1.39,1.39,0,0,0-1.23.61,3.1,3.1,0,0,0-.48,1.71h3.31v-.21A2.62,2.62,0,0,0,85,10.6Z"/><path class="cls-1" d="M92.74,9.06a2.65,2.65,0,0,1,.06.58,2.47,2.47,0,0,1-.06.56l-2,0V15c0,.45.21.67.64.67h1.11a1.76,1.76,0,0,1,.12.66,4.4,4.4,0,0,1,0,.45,15.34,15.34,0,0,1-1.74.11,1.4,1.4,0,0,1-1.61-1.55V10.18l-1.15,0a2.47,2.47,0,0,1-.06-.56,2.65,2.65,0,0,1,.06-.58l1.15,0V7.64a1.19,1.19,0,0,1,.18-.75.76.76,0,0,1,.64-.23h.57l.1.1V9.09Z"/><path class="cls-2" d="M93.73,10.09A2,2,0,0,1,94,9.41a1.93,1.93,0,0,1,.44-.54,2.17,2.17,0,0,1,1.92,1.42,2.05,2.05,0,0,1,2-1.4,4,4,0,0,1,1,.13,4.94,4.94,0,0,1-.16,1.09,4.28,4.28,0,0,1-.43,1.1,2.87,2.87,0,0,0-.79-.14,1.53,1.53,0,0,0-1.35.85v4.94a6.31,6.31,0,0,1-1.15.09,7,7,0,0,1-1.2-.09V11.71A1.91,1.91,0,0,0,93.73,10.09Z"/><path class="cls-2" d="M106,9.68a4.4,4.4,0,0,1,1.13,3.24A4.42,4.42,0,0,1,106,16.16a3.77,3.77,0,0,1-5,0,4.38,4.38,0,0,1-1.13-3.24,4.36,4.36,0,0,1,1.13-3.24,3.8,3.8,0,0,1,5,0Zm-3.44,1.46a5.28,5.28,0,0,0-.24,1.79,5.08,5.08,0,0,0,.24,1.77,1,1,0,0,0,1,.63.93.93,0,0,0,1-.63,4.82,4.82,0,0,0,.25-1.77,5,5,0,0,0-.25-1.79.93.93,0,0,0-1-.63A1,1,0,0,0,102.57,11.14Z"/><path class="cls-2" d="M113.1,9a3.58,3.58,0,0,1,0,1.68l-1.89,0v3.77c0,.5.23.75.7.75h.91a3.07,3.07,0,0,1,.19,1,2.36,2.36,0,0,1-.06.63,16,16,0,0,1-2.09.15c-1.29,0-1.94-.7-1.94-2.11V10.64l-1.23,0a3.43,3.43,0,0,1-.09-.84,3.43,3.43,0,0,1,.09-.84l1.23,0V8a1.66,1.66,0,0,1,.29-1.11,1.27,1.27,0,0,1,1-.31h.91l.11.11V9Z"/><path class="cls-2" d="M121.06,15.77a2.18,2.18,0,0,1-.3.68,1.91,1.91,0,0,1-.45.53,2,2,0,0,1-1.64-.83,3.17,3.17,0,0,1-2.23.94,2.3,2.3,0,0,1-1.84-.72,2.48,2.48,0,0,1-.63-1.66,2.46,2.46,0,0,1,.89-2,3.54,3.54,0,0,1,2.22-.69c.35,0,.74,0,1.18,0v-.35a.94.94,0,0,0-1.07-1,9.9,9.9,0,0,0-2.35.5,2.77,2.77,0,0,1-.57-1.64A8.84,8.84,0,0,1,116,9a9.69,9.69,0,0,1,1.81-.19,3,3,0,0,1,2,.65,2.49,2.49,0,0,1,.79,2v3.22A1.2,1.2,0,0,0,121.06,15.77Zm-4-.43a1.89,1.89,0,0,0,1.23-.52V13.51h-.94a.93.93,0,0,0-1.06,1.05.79.79,0,0,0,.21.56A.74.74,0,0,0,117,15.34Z"/><path class="cls-1" d="M19.31,13.88H15c-.9,0-2.09-.05-3.59-.05C8.48,13.83,7,12.38,7,9.48s1.44-4.36,4.34-4.36h0A1.51,1.51,0,0,0,13,3.72V1.49A1.55,1.55,0,0,0,11.16.1,18.25,18.25,0,0,0,5.51,1.5,8.46,8.46,0,0,0,1.68,4.42,8.09,8.09,0,0,0,.05,9.48q0,4.66,3,7a12.12,12.12,0,0,0,7.84,2.38c1.36,0,5.74-.08,8.52-.13a2.38,2.38,0,0,0,2.37-2.35v-.18A2.38,2.38,0,0,0,19.31,13.88Z"/><path class="cls-2" d="M11.67,11.72H16c.89,0,2.09,0,3.58,0q4.35,0,4.35,4.35T19.6,20.48h0a1.51,1.51,0,0,0-1.6,1.4v2.23a1.57,1.57,0,0,0,1.84,1.4,18.27,18.27,0,0,0,5.64-1.41,8.34,8.34,0,0,0,3.83-2.92,8.08,8.08,0,0,0,1.64-5.06c0-3.1-1-5.45-3-7a12.1,12.1,0,0,0-7.84-2.38c-1.35,0-5.74.08-8.51.13A2.39,2.39,0,0,0,9.25,9.19v.18A2.38,2.38,0,0,0,11.67,11.72Z"/></svg>